<?xml version="1.0" encoding="UTF-8" standalone="no"?>
<!-- Created with Inkscape (http://www.inkscape.org/) -->

<svg
   version="1.1"
   id="svg1"
   width="408"
   height="408"
   viewBox="0 0 408 408"
   sodipodi:docname="logo.svg"
   inkscape:version="1.4.2 (1:1.4.2+202505120737+ebf0e940d0)"
   xmlns:inkscape="http://www.inkscape.org/namespaces/inkscape"
   xmlns:sodipodi="http://sodipodi.sourceforge.net/DTD/sodipodi-0.dtd"
   xmlns="http://www.w3.org/2000/svg"
   xmlns:svg="http://www.w3.org/2000/svg">
  <defs
     id="defs1" />
  <sodipodi:namedview
     id="namedview1"
     pagecolor="#ffffff"
     bordercolor="#000000"
     borderopacity="0.25"
     inkscape:showpageshadow="2"
     inkscape:pageopacity="0.0"
     inkscape:pagecheckerboard="0"
     inkscape:deskcolor="#d1d1d1"
     inkscape:zoom="1.9436275"
     inkscape:cx="204"
     inkscape:cy="204"
     inkscape:window-width="1920"
     inkscape:window-height="1043"
     inkscape:window-x="0"
     inkscape:window-y="0"
     inkscape:window-maximized="1"
     inkscape:current-layer="g1" />
  <g
     inkscape:groupmode="layer"
     inkscape:label="Image"
     id="g1">
    <path
       style="fill:#000000"
       d="M 93,358.5 V 344 h 2.952283 c 2.916824,0 2.955858,0.0737 3.25,6.13985 L 99.5,356.2797 l 4.81635,-6.13985 C 108.58733,344.69523 109.53125,344 112.65245,344 h 3.51976 l -5.0789,6.38274 -5.0789,6.38273 4.9928,7.64819 c 2.74603,4.20651 4.99279,7.85928 4.99279,8.11727 0,0.25799 -1.4625,0.46412 -3.25,0.45806 -2.90116,-0.01 -3.66301,-0.67814 -7.09785,-6.22642 -3.60857,-5.8289 -3.93505,-6.09616 -5.25,-4.29786 C 99.630966,363.51936 99,366.32125 99,368.69113 99,372.8121 98.869175,373 96,373 h -3 z m 36,0.0664 V 344 h 3.02746 3.02745 l -0.27745,14.25 -0.27746,14.25 -2.75,0.31642 -2.75,0.31642 z m 27.5235,13.62375 C 156.23558,371.90224 156,366.56667 156,360.33333 V 349 h -4 c -3.6,0 -4,-0.25 -4,-2.5 V 344 h 11 11 v 2.5 c 0,2.25 -0.4,2.5 -4,2.5 h -4 v 11.38342 c 0,11.3194 -0.0139,11.38609 -2.4765,11.85684 -1.36207,0.26038 -2.71207,0.23783 -3,-0.0501 z M 188,371.24845 c -4.26513,-2.13067 -6.99634,-7.22283 -6.99845,-13.04811 -0.003,-8.25849 5.2213,-14.20034 12.48543,-14.20034 7.21726,0 14.81597,6.81691 9.48481,8.50895 -1.4793,0.46951 -2.83163,0.0319 -4.37132,-1.41456 -4.92221,-4.62418 -10.5852,-1.30875 -11.34941,6.64457 -0.43314,4.50774 -0.18693,5.41608 2.08342,7.68643 3.09405,3.09405 5.53588,3.25102 8.93839,0.57461 2.81555,-2.21472 3.59491,-2.37 5.58038,-1.11186 3.35996,2.12911 -4.07238,8.11439 -10.07113,8.11031 -1.25517,-8.6e-4 -3.85712,-0.78836 -5.78212,-1.75 z m 31,-13.03185 v -14.34944 l 2.75,0.31642 c 2.60332,0.29954 2.766,0.62311 3.0499,6.06642 l 0.29991,5.75 H 230.0499 235 v -6.06336 -6.06336 l 3.25,0.31336 3.25,0.31336 0.27822,13.75 0.27822,13.75 h -3.62077 -3.62077 l 0.34255,-5.50136 0.34255,-5.50137 -5.2001,0.001 -5.20009,0.001 -0.29991,5.66655 c -0.28628,5.40927 -0.42476,5.67183 -3.0499,5.78302 l -2.75,0.11647 z m 37.43727,13.48051 c -0.27498,-0.71658 -0.37336,-7.12908 -0.21862,-14.25 L 256.5,344.5 l 7.91161,-0.29497 c 9.48003,-0.35345 10.47311,-0.0559 9.89793,2.96615 -0.40221,2.11325 -0.96932,2.32882 -6.12639,2.32882 -5.45642,0 -5.69577,0.10971 -5.99957,2.75 -0.31165,2.70854 -0.2325,2.75 5.25,2.75 5.27085,0 5.56642,0.13275 5.56642,2.5 0,2.36364 -0.3,2.5 -5.5,2.5 H 262 v 3.5 3.5 h 6.5 6.5 v 3 3 h -9.03138 c -6.49814,0 -9.17163,-0.36545 -9.53135,-1.30289 z M 289,358 v -14 h 2.49347 c 2.0227,0 3.58032,1.63462 8.25,8.65783 l 5.75653,8.65784 0.28893,-8.65784 L 306.07787,344 H 309.03893 312 v 14 14 l -2.75,-0.0192 c -2.3112,-0.0162 -3.62624,-1.30708 -8.24148,-8.09023 -3.02032,-4.43904 -5.72032,-8.2139 -6,-8.38859 -0.27969,-0.17468 -0.36296,3.46592 -0.18505,8.09023 L 295.14695,372 H 292.07347 289 Z M 11,320.2322 c 0,-0.42229 4.200009,-12.00979 9.333352,-25.75 L 29.666705,269.5 35.583352,269.21852 41.5,268.93703 l 9.277431,25.28149 c 5.102587,13.90481 9.265087,25.64144 9.25,26.08138 -0.01509,0.43995 -2.604085,0.66495 -5.75333,0.5 L 48.548203,320.5 46.892622,316 l -1.655581,-4.5 -9.405837,-0.28365 -9.405837,-0.28364 -2.126654,5.03364 L 22.172059,321 h -5.58603 C 13.513713,321 11,320.65449 11,320.2322 Z m 27.917347,-27.45637 c -1.66779,-4.52329 -3.15433,-8.34615 -3.303422,-8.49524 -0.310278,-0.31028 -5.643368,14.82877 -5.625605,15.96941 0.0064,0.4125 2.700361,0.75 5.986527,0.75 h 5.974847 z M 68,295 v -26 h 5.298875 5.298876 l 10.840119,16 c 5.962066,8.8 10.89007,16.00041 10.95112,16.00092 0.0611,5e-4 -0.041,-7.1995 -0.22685,-16 L 99.824285,269 H 105.91214 112 v 26 26 h -5.27291 -5.2729 L 90.227094,304.79468 79,288.58936 V 304.79468 321 H 73.5 68 Z m 70,15.50253 v -10.49748 l -8.46891,-13.83971 c -4.6579,-7.61184 -8.75604,-14.58798 -9.10699,-15.50253 -0.55413,-1.44404 0.19828,-1.66034 5.71891,-1.64404 l 6.35699,0.0188 5.54379,9.94111 5.5438,9.94111 5.93632,-9.95988 L 155.46024,269 h 6.26988 c 3.44843,0 6.26988,0.25642 6.26988,0.56982 0,0.31341 -1.26899,2.45091 -2.81998,4.75 -1.55099,2.2991 -5.82599,9.15073 -9.5,15.22585 L 149,300.59135 V 310.79567 321 h -5.5 -5.5 z m 49,-10.58459 v -21.08206 l -7.00225,0.33206 -7.00226,0.33206 0.002,-5.25 L 173,269 h 19.5 19.5 l 0.002,5.25 0.002,5.25 -7.00226,-0.33206 L 198,278.83588 V 299.91794 321 h -5.5 -5.5 z m 34,-5.12345 v -25.8943 l 5.75,0.29991 5.75,0.2999 0.28498,10.25 0.28499,10.25 H 242.53498 252 V 279.5 269 h 5.5 5.5 v 26 26 H 257.5 252 V 310.5 300 h -9.46502 -9.46501 l -0.28499,10.13086 -0.28498,10.13086 -5.75,0.21354 -5.75,0.21353 z m 54,0.25541 V 269 h 6.01688 6.01688 l -0.26688,25.75 -0.26688,25.75 -5.75,0.2999 -5.75,0.29991 z m 23.63214,25.2489 C 298.28446,319.95113 298,308.26667 298,294.33333 V 269 l 5.25,0.0307 5.25,0.0307 11,16.21933 11,16.21934 0.27477,-16.25 0.27477,-16.25 h 5.49211 5.49211 l -0.26688,25.59646 -0.26688,25.59645 -5.06782,0.39541 -5.06782,0.39541 -10.82197,-15.49186 c -5.95208,-8.52053 -10.87156,-15.49237 -10.93218,-15.49299 -0.0606,-6.1e-4 -0.11021,6.79757 -0.11021,15.10708 v 15.1082 l -5.11786,0.35839 c -2.81483,0.19712 -5.40233,0.0739 -5.75,-0.27375 z m 65.79712,-1.19161 c -8.76185,-3.97954 -14.07283,-14.86835 -13.20026,-27.06372 1.20691,-16.86812 14.17444,-26.72062 30.41189,-23.10642 4.79528,1.06736 6.72156,2.16416 10.60911,6.04069 2.6125,2.6051 4.75,5.18724 4.75,5.73809 0,0.55085 -2.42001,1.89301 -5.3778,2.98259 l -5.3778,1.98103 -2.62982,-3.29584 c -3.25734,-4.0823 -7.83642,-5.15341 -12.93103,-3.02475 -5.39966,2.25612 -7.67529,6.69786 -7.67981,14.99001 -0.006,11.37986 3.71933,16.65113 11.76843,16.65113 5.36349,0 9.46727,-2.03533 11.03314,-5.47206 1.93508,-4.24702 1.53852,-4.69447 -3.9045,-4.40557 l -5.09919,0.27064 -0.37006,-4.69651 L 376.06151,292 H 387.03076 398 v 5.2566 c 0,10.50163 -3.69852,17.37127 -11.44634,21.26047 -6.22783,3.1262 -15.96861,3.38601 -22.1244,0.59012 z m -255.9101,-70.6445 C 96.43292,243.85439 90.027997,228.3077 94.11524,213.5 c 1.484403,-5.37785 10.00691,-13.90036 15.38476,-15.38476 11.11044,-3.06672 22.82785,0.21328 28.4404,7.96118 1.68278,2.32301 3.0596,4.54255 3.0596,4.93231 0,0.38975 -2.50207,1.63034 -5.56015,2.75686 l -5.56015,2.04821 -0.91492,-2.40644 c -1.49528,-3.93289 -6.72985,-6.59206 -11.93043,-6.0607 -10.63986,1.08713 -15.61632,15.63187 -9.03829,26.41625 4.48875,7.3591 13.66802,8.03871 19.69551,1.45821 l 3.31331,-3.61728 4.49756,2.18508 c 2.47366,1.2018 4.49756,2.71096 4.49756,3.35369 0,2.31693 -5.20287,7.92045 -9.30793,10.02471 -5.42956,2.78319 -16.56464,3.43372 -22.17291,1.29537 z m 54.72101,-0.26707 c -20.79731,-8.27832 -21.3025,-39.27288 -0.79578,-48.82192 6.38953,-2.97531 16.15508,-3.19788 22.05561,-0.50269 5.07892,2.31991 11.83418,9.63496 13.5872,14.71313 1.78277,5.16436 1.62312,16.01 -0.3016,20.48859 -5.55089,12.91629 -21.35,19.3753 -34.54543,14.12289 z m 17.79476,-10.42349 c 7.86967,-4.8162 8.92739,-19.65596 1.90176,-26.68159 -4.06621,-4.06621 -8.92051,-4.88182 -14.72868,-2.47469 -15.41156,6.38717 -9.7988,33.04444 6.52013,30.96673 2.32547,-0.29608 5.16353,-1.11078 6.30679,-1.81045 z m 42.58055,10.75557 c -4.71437,-1.68029 -11.03193,-7.60224 -13.89801,-13.0277 -3.03948,-5.75373 -3.06326,-18.38806 -0.0452,-24 5.24101,-9.7453 12.9023,-14.44336 23.60982,-14.47804 7.84316,-0.0254 11.84156,1.39171 17.19907,6.09567 11.3499,9.96534 11.44914,31.00917 0.19106,40.51352 -7.26378,6.13226 -18.09178,8.09184 -27.05677,4.89655 z m 17.36107,-11.32268 c 3.82737,-2.80167 6.02063,-7.97856 6.01816,-14.20502 -0.008,-19.52434 -24.66371,-21.72702 -27.55276,-2.46147 -1.22791,8.18827 3.63709,17.48078 9.84446,18.80366 3.69831,0.78816 9.0239,-0.18545 11.69014,-2.13717 z M 270,224 v -26 h 6.14728 6.14728 l -0.64079,10.75 -0.6408,10.75 2.24352,-2.63217 c 1.23393,-1.4477 5.35133,-6.2852 9.14978,-10.75 L 299.31253,198 h 6.84374 c 3.76405,0 6.84373,0.27789 6.84373,0.61752 0,0.33964 -3.23932,4.27714 -7.19849,8.75 -3.95918,4.47287 -8.03625,9.0903 -9.06017,10.26097 -1.84451,2.10888 -1.77358,2.26184 7.6985,16.60088 C 309.69793,242.18918 314,248.99386 314,249.35088 314,249.70789 311.0794,250 307.50978,250 h -6.49021 l -7.19558,-11.13466 -7.19558,-11.13466 -2.3142,2.69042 C 282.29038,232.77394 282,234.17107 282,241.55576 V 250 h -6 -6 z M 154.20297,170.80297 C 153.54134,170.14134 153,168.88081 153,168.00181 c 0,-0.87901 10.8,-12.6746 24,-26.21244 13.2,-13.53784 24,-25.01975 24,-25.51535 0,-0.49561 -4.63033,-5.79077 -10.28961,-11.76701 L 180.42077,93.641105 173.46039,93.486203 C 164.3359,93.283141 160.26028,91.120722 151.45921,81.812943 143.2371,73.117466 125.61389,53.176621 125.23652,52.14171 c -0.14491,-0.397421 0.37382,-1.594147 1.15275,-2.65939 2.45834,-3.361975 5.67276,-0.82464 20.99951,16.576175 C 162.39661,83.097238 166.04644,86 172.4625,86 c 6.46502,0 8.32475,-5.467742 4.62827,-13.607413 -1.02592,-2.259078 -7.65354,-10.967788 -14.72804,-19.352689 -16.52889,-19.590514 -15.89867,-18.689209 -14.36247,-20.540214 2.35756,-2.840681 5.34786,-1.646592 10.49974,4.192756 13.63469,15.454108 22.98385,27.29351 25.11732,31.80756 1.80628,3.821778 2.37492,6.767333 2.41314,12.5 l 0.05,7.5 10.40252,11 10.40251,11 10.06604,-9.98999 c 5.53632,-5.494489 10.29441,-10.709512 10.57353,-11.588936 0.27912,-0.879423 -0.17483,-3.231976 -1.00878,-5.227894 -2.19243,-5.247231 -1.91634,-14.542282 0.63583,-21.405667 1.67831,-4.513375 3.8248,-7.444159 9.75,-13.312491 C 247.11773,38.857436 253.58802,35.685165 265,35.19911 c 7.59773,-0.3236 8.86176,-0.114546 11.90805,1.96943 5.48079,3.749426 7.41347,7.128315 7.89644,13.805287 0.77219,10.67543 -4.86574,22.870033 -15.48147,33.485765 C 258.74879,95.033818 250.19445,98.20528 239.63843,95.46494 L 233.5,93.871403 223.2824,104.6857 c -5.61968,5.94787 -10.23218,11.17356 -10.25,11.61265 -0.0178,0.43909 9.9801,11.60584 22.2176,24.81499 17.51238,18.90285 22.25,24.58834 22.25,26.70165 0,2.12574 -0.52073,2.74094 -2.5,2.95352 -2.10833,0.22644 -6.09213,-3.59155 -25.42843,-24.37013 l -22.92842,-24.63865 -6.09096,6.37014 c -29.31632,30.66001 -41.35493,42.74503 -43.09922,43.26539 -1.12587,0.33587 -2.58837,0.0693 -3.25,-0.59229 z M 254.60829,86.418483 c 9.19712,-4.277131 19.83872,-18.537987 22.52843,-30.190456 2.02897,-8.789944 -2.34211,-14.228945 -11.43377,-14.227238 -10.78544,0.002 -28.8641,14.068027 -32.10415,24.978461 -2.0875,7.029382 -2.01691,9.525594 0.41119,14.541394 1.8216,3.76292 3.57991,5.27646 7.99001,6.877761 2.46081,0.893516 8.45286,-0.04743 12.60829,-1.979922 z M 149.5,59.440783 c -7.15,-8.046644 -13.14966,-15.284246 -13.33258,-16.083561 -0.4709,-2.057789 1.83339,-4.509025 3.90638,-4.155479 0.96184,0.164041 7.66893,6.944083 14.90463,15.066759 9.85318,11.061017 13.07621,15.328697 12.8387,17 -0.21736,1.529424 -1.10368,2.321329 -2.81713,2.51702 -2.09867,0.239687 -4.58689,-2.063076 -15.5,-14.344739 z"
       id="path1" />
  </g>
</svg>
