<?xml version="1.0" encoding="utf-8"?>
<!-- Generator: Adobe Illustrator 25.0.1, SVG Export Plug-In . SVG Version: 6.00 Build 0)  -->
<svg version="1.1" id="Layer_1" xmlns="http://www.w3.org/2000/svg" xmlns:xlink="http://www.w3.org/1999/xlink" x="0px" y="0px"
	 width="828px" height="828px" viewBox="0 0 828 828" style="enable-background:new 0 0 828 828;" xml:space="preserve">
<path d="M257.8,320.9c2.5,1.1,1.4,2.3,0.8,3.2c0.9,0.9,1.7,1.6,2.5,2.4c-1,0.7-1.9,1.4-3.2,2.3c0.5,0.2,1.1,0.3,1.6,0.5
	c0.5,0.2,1.3,0.6,1.3,0.8c-0.1,0.5-0.5,1.3-0.9,1.5c-1.7,0.6-3.5,1-4.8,1.4c0.8,4.2,2.1,8.4,2.4,12.8c0.5,9.3-3.2,17.6-7.7,25.4
	c-2,3.4-4.2,6.7-6.4,10.2c9-1.2,20.3,4.8,24.2,12.7c3.7,7.4,2.6,16.5-2.5,21.8c5.8,7.7,6.3,16,2,24.3c-2.9,5.7-7.1,10-14.4,9.2
	c-1.7,10.1-8.1,16.3-17,20.4c-8.9,4.1-17.9,3.1-27.3-0.2c3.9,5.3,7.5,10.3,11.2,15.2c4.9,6.3,9.8,12.5,14.8,18.7
	c0.5,0.7,1.7,1.3,2.6,1.2c3.6-0.4,6.7,0.6,9.5,2.7c1,0.7,1.9,1.6,3,2.1c2.1,0.9,3.2,2.1,2.6,4.6c-0.2,0.8,0.5,2.3,1.2,2.9
	c4.1,3.1,4.9,7.4,4.8,12c-0.1,2.7,0.8,4.7,2.7,6.6c7.8,7.9,15.6,15.7,23.1,23.9c7,7.5,12.4,16.2,16,25.8c3.6,9.6,3.2,19.3,0.8,28.9
	c-2.3,9.2-5.7,18.2-8.6,27.3c-1.3,4-2.6,8.1-4,12.1c-0.3,0.7-1.3,1.7-2,1.7c-1.4-0.1-1.7-1.3-1.3-2.6c2.1-7.3,4-14.7,6.3-22
	c3.1-9.8,6.2-19.6,6.3-30c0.1-13.4-5.3-24.7-13.4-34.8c-3.9-4.9-8.2-9.5-12.6-13.9c-9.6-9.7-19.3-19.3-27.1-30.6
	c-2.2-3.1-5.5-4.7-9.2-5.3c-3.7-0.6-6.1,1.5-6.1,5.3c0,0.6,0.3,1.3,0.1,1.9c-0.2,0.8-0.4,1.9-0.9,2.2c-0.6,0.3-1.7,0-2.4-0.3
	c-2.4-1.2-4.7-2.9-7.2-3.9c-4.7-1.9-9.3-1.4-13.4,1.7c-3,2.2-4,4.8-2.6,8.2c1.2,3,2.8,6,4.8,8.5c13.5,17,27.5,33.6,38.9,52.1
	c5.5,8.9,10.2,18.2,12.3,28.6c2.6,12.8-0.1,24.7-5.6,36.2c-0.6,1.3-1.2,2.6-1.9,3.9c-0.6,1.2-1.3,2.1-2.8,1.4
	c-1.5-0.7-1.2-1.9-0.7-3.1c1.4-3.8,2.8-7.7,4.2-11.5c5.5-16.1,2.9-31.2-5.3-45.8c-9-15.9-19.9-30.5-31.3-44.8
	c-4.5-5.6-9-11.1-13.5-16.7c-7.1-8.8-3.5-21,7-23.3c5.2-1.2,10,0.3,14.6,2.6c0.4,0.2,0.9,0.4,1.3,0.6c1.7-6.1,5-8,11.7-6.6
	c5.2,1.1,9.6,3.6,12.7,8c1.5,2.1,3.1,4.1,5,6.5c0.3-3-0.3-5.1-2.1-6.7c-2.4-2.2-4.9-4.4-3.5-8.4c-1.5,0.2-2.4,0.4-3.3,0.3
	c-1.4-0.1-2.8-0.4-2.5-2.4c0.2-1.7-1-2.2-2.2-2.2c-1.7,0-3.4,0.2-5,0.7c-2.5,0.8-4.8,0.7-7.3-0.4c-2.6-1.2-3.4-0.8-4.9,1.7
	c-1.9,3.3-2.2,3.4-5.3,1c-1-0.8-2.1-1.5-3.2-2.1c-2.9-1.5-4.4-1-6.9,1.2c-1.7,1.5-3.8,2.7-5.9,3.3c-2.3,0.7-4,1.6-4.6,4
	c-0.7,2.8-2.5,4.3-5.2,5.1c-2,0.6-3.8,1.8-5.7,2.7c0,0.3,0.1,0.6,0.1,0.9c1,0.6,2,1.1,3,1.7c1,0.6,2,1.1,2.8,1.8
	c2.4,2,2.1,3.9-0.7,5.4c-0.3,0.2-0.7,0.4-1.9,1.5c0.9,0.5,1.8,0.9,2.7,1.4c1.7,1,3.3,1.9,5,3c2.8,1.7,4.4,4.1,4.3,7.5
	c-0.1,4.2,0.3,4.8,4.3,6.1c3,0.9,4.7,2.7,4.7,5.9c0,1.1-0.4,2.4-1,3.3c-1.2,1.6-0.7,2.3,0.9,2.7c0.5,0.2,1.1,0.3,1.6,0.4
	c4.2,0.8,6.2,3.2,6.3,7.5c0,0.9,0.1,1.8,0.1,2.6c0.2,1.9,0.6,3.1,3.2,2.6c2.9-0.6,5.2,2,4.5,4.9c-0.4,2,0.1,3,2.1,3.6
	c2.7,0.9,4.3,2.7,4.9,5.7c0.3,1.6,1.2,3.4,2.4,4.6c2.9,3,3.8,6.2,2.7,10.1c-0.7,2.3,0.2,3.5,2.4,4.5c5.1,2.2,6,4,5,9.8
	c-0.4,2.3-0.1,4.4,1.5,6.1c3.8,3.7,3.5,8,1.9,12.5c-1.6,4.2-3.4,8.3-5,12.5c-0.8,2.2-2.4,4.2-1.7,6.8c0.1,0.4-1,1.7-1.6,1.7
	c-0.8,0-2.3-0.7-2.4-1.3c-0.3-1.5-0.3-3.3,0.2-4.7c1.7-4.7,3.8-9.4,5.7-14c0.7-1.6,1.5-3.2,2-4.9c0.6-1.8,0.4-3.7-1.3-4.8
	c-3.7-2.4-4-6-3.2-9.6c0.8-3.4-0.6-5.2-3.3-6.6c-2.3-1.2-4.7-2.7-4.2-5.5c0.9-5-0.4-8.9-3.7-12.6c-0.8-0.9-0.8-2.5-1.5-3.5
	c-0.8-1.3-1.6-2.7-2.9-3.4c-3.3-1.8-4.1-4.4-3.7-8c-1.1,0.1-2.2,0.3-3.2,0.2c-2.7-0.4-4.9-3.1-4.6-6.2c0.6-6.4-1-6.8-5.9-7.5
	c-4-0.5-5.3-4.8-2.6-7.8c1.4-1.6,0.9-2.6-0.6-3.5c-1.1-0.7-2.3-1.1-3.5-1.6c-3.3-1.3-5-3.5-4.4-7.1c0.6-3.5-0.7-5.3-3.7-6.8
	c-2.2-1.1-4.3-2.8-6.1-4.6c-2.1-2.2-2-4.4-0.2-6.8c-6.3-4.2-6.6-6.4-1.8-11.2c-12.8-16.8-25.6-33.6-38.4-50.4c-2,0.9-2,0.9-3.3-1.3
	c-1.5-2.6-3-5.1-4.4-7.7c-3.8-7.3-9.2-13.6-13.6-20.4c-5.3-8.1-13-10.8-21.5-12.8c-32.3-7.5-66.9,14.2-76.6,43
	c-2.5,7.5-3.1,15.1-2.6,22.8c0.6,7.9,1.5,15.8,2.4,23.9c2.2-3.4,4.2-6.5,6.2-9.6c0.3-0.5,0.6-1,1-1.3c0.6-0.4,1.4-0.6,2.1-0.9
	c0.1,0.8,0.4,1.7,0.2,2.3c-2.7,6.9-5.6,13.7-8.4,20.5c-2.1,5.2-4,10.5-6.2,15.6c-1,2.3-2.7,4.3-4.3,6.3c-0.5,0.7-1.6,0.9-3.1,1.7
	c0.3-1.7,0.4-2.6,0.7-3.5c1.9-5.4,3.9-10.9,5.8-16.3c0.3-1,0.4-2.2,0.4-3.2c-0.3-7.5-0.7-15.1-1-22.6c-0.3-7-1.1-14-0.8-20.9
	c0.8-18.9,8.5-34.5,22.8-46.9c0.9-0.8,1.8-1.6,2.7-2.4c0.1-0.1,0.2-0.3,0.4-0.6c-2-0.4-3.9-0.7-5.8-1.2
	c-10.7-2.8-18.7-8.8-21.5-19.8c-1.3-5.1-3.7-8.8-7.8-11.9C-2.4,392.8-2,375.9,3.7,364.6c3.2-6.3,7.7-12,12.2-17.5
	c5.2-6.2,9.5-12.9,12.7-20.3c2-4.6,4.5-9,7.4-13.2c3.1-4.6,8-7.2,13-9.2c11-4.4,16.6-12.6,18-24.1c1.2-9.7,5.3-18,11.8-25.3
	c12.6-14.2,23.6-29.7,34.2-45.4c5.3-7.9,11.2-15.2,18.4-21.6c6.6-5.9,14.5-8.7,23.2-9.5c0.4,0,0.8-0.1,1.2-0.1
	c3.2,0.1,5.5-0.6,7.6-3.8c3.8-5.9,10.3-7.8,17-8.7c11.7-1.4,22.4,1.6,32.7,6.9c4.3,2.2,8.6,4.4,12.9,6.5c9.3,4.7,19.6,6.6,29.6,9.2
	c7.8,2,15.5,4.4,22.2,9c12.9,8.8,18.6,21.5,19.1,36.7c0.3,7.8-1.1,15.2-6.2,21.2c-2,2.3-3,4.2-1.5,7.1c0.4,0.7,0.4,1.6,0.4,2.4
	c0.3,8.3,1.1,16.6,0.6,24.8c-0.4,6.7-3.8,12.3-9.2,16.6c-2.5,2-5.2,3.1-8.4,3c-0.6,0-1.6,0.5-2,1.1c-2.2,4-5.2,7.1-9.9,8.2
	C259.8,318.8,259,319.9,257.8,320.9z M138.4,451.2c0.3,0.1,0.5,0.2,0.8,0.4c0.1,0.5,0,1.1,0.2,1.5c2.8,5.4,5.4,10.9,10.5,14.7
	c0.6,0.5,1.2,1.1,1.7,1.7c9,11.2,18.1,22.3,27.1,33.5c4.2,5.2,8.1,10.5,12.2,15.7c3.8-1.3,4.4-3.1,1.9-6
	c-13.1-15.2-26.2-30.4-39.4-45.5c-4.6-5.3-9.4-10.5-14-15.8C138.9,451.5,138.6,451.4,138.4,451.2c-0.1,0-0.2,0-0.2,0
	c0,0,0.1-0.1,0.1-0.1C138.4,451.2,138.4,451.2,138.4,451.2z M102.6,271.1c0.3,0.1,0.5,0.2,0.8,0.3c0.4,0.7,0.8,1.4,1.2,2.1
	c0.7,0.9,1.4,1.7,2.1,2.6c0.5,0.8,1.5,1.9,1.3,2.5c-0.3,0.9-1.5,1.4-2.3,2.1c3,7.4,8.8,11.9,16.7,13.7c-2.6-1.5-5.3-2.9-7.8-4.5
	c-1.6-1-3-2.3-4.3-3.7c-0.4-0.4-0.5-1.7-0.2-2.1c0.3-0.4,1.5-0.6,2.1-0.4c1.4,0.7,2.7,1.7,4.1,2.4c3.1,1.8,6.1,3.5,9.1,5.1
	c0.7-1.7,1.1-2.7,1.4-3.5c-3.5-1.7-7.4-3.2-10.8-5.4c-4-2.7-7.5-6-11.2-9c-0.5-0.6-1-1.2-1.5-1.9C103,271.4,102.8,271.3,102.6,271.1
	c-0.2,0-0.2-0.1-0.3-0.2c0.1,0,0.2-0.1,0.4-0.1C102.6,270.9,102.6,271,102.6,271.1z M109.4,353.2c0,0,0,0.1-0.1,0.1
	C109.4,353.3,109.5,353.3,109.4,353.2c1.5,2.8,3.1,5.6,4.4,8.5c1.6,3.8,3,7.8,4.5,11.7c0.5-1.8,0.7-3.7,0.5-5.5
	C118.1,361.5,114.3,357,109.4,353.2z M256.2,405.8C256.3,405.8,256.3,405.8,256.2,405.8c0.1,0.8,0.3,1.6,0.3,2.5
	c0,1.3,0,2.5-0.1,3.8c-1.2-0.2-2.5-0.4-3.7-0.6c-0.1,0-0.3,0.1-0.5,0.2c0.4,0.7,0.7,1.4,1.1,2.1c2.6,4.7,4,9.8,4.7,15.1
	c0.2,1.4,0,2.9-1.6,3c-0.9,0.1-1.8-1.1-2.7-1.8c-0.2-0.2-0.3-0.6-0.4-0.9c-1.2-3.4-2.1-6.9-3.7-10.1c-1.3-2.5-3.4-4.6-5.2-6.7
	c-0.4-0.4-1.3-0.4-1.8-0.5c-0.2,2.3-0.3,4.4-0.7,6.4c-0.2,1-1.2,1.9-1.5,2.9c-0.6,1.7-1.4,2-2.7,0.8c-0.4-0.4-1-0.7-1.2-0.9
	c-1.2,4.1-2.1,8-3.4,11.7c-1.2,3.2-2.5,3.3-4.8,0.7c-2.1-2.3-4.3-4.3-7.6-4.8c-3.4-0.5-4,0.1-3.5,3.3c-1,1-1.8,2-2.7,2.9
	c1,0.2,1.6-0.1,2.3-0.3c3.9-0.9,7.3,1,8.2,4.8c0.7,3-0.3,5.5-2.1,7.9c-2.2,2.9-3.2,2.9-5.5,0c-1.7,1.9-3.3,1.4-4.9-0.2
	c-1.1,0.7-2,1.3-2.8,1.9c0.1,0.8,0,1.5,0.3,2.1c0.3,0.8,0.8,1.9,1.4,2.2c2.9,1.3,5.9,1.4,8.8-0.3c2.2-1.3,3.4-4.2,6.4-4.2
	c0.2,0,0.3-0.4,0.5-0.5c0.8-0.6,1.6-1.6,2.4-1.7c0.7-0.1,1.6,0.8,2.5,1.3c0.9-2.1,2-4.2,2.8-6.4c0.7-2,1.6-2.9,3.9-1.6
	c0.3-2,0.5-3.8,0.9-5.5c0.2-0.6,1-1.6,1.4-1.5c0.7,0.1,1.3,0.8,1.9,1.4c0.2,0.2,0.2,0.7,0.3,1c0.6-0.9,0.7-1.8,0.7-2.7
	c-0.1-2.1-0.3-4.2-0.3-6.2c0-0.5,0.6-1.4,1.1-1.5c0.5-0.1,1.3,0.4,1.7,0.9c0.3,0.4,0.5,1,0.5,1.6c0.1,4.4,0.5,8.8,0.2,13.1
	c-0.3,3.7-0.6,3.6-4.3,3.5c-0.3,6.9-4,12.3-8.3,17.4c4.4-1.2,8-3.5,10.1-7.5c0.7-1.4,1.1-3,1.8-4.5c0.9-1.8,1.5-4.4,2.9-5
	c2.5-1,2.8-3,3.9-4.8c0.4-0.7,1.2-1.2,1.8-1.8c0.4,0.7,0.9,1.5,1.3,2.2c0.1,0.3,0,0.7,0,1.3c2.2-0.9,3-2.6,3.6-4.4
	c0.2-0.6,0.7-1.4,1.1-1.5c1.7-0.4,1.9-1.5,1.8-2.9c0-1.3-0.3-2.9,0.2-4c1.4-3.2-0.1-8.8-3.2-10.4c-3.3-1.7-3.4-2-0.5-4.4
	c2.7-2.3,5-4.9,5.9-8.6c1.6-6.7-4.2-14.4-9.2-16.8c-0.2-0.1-0.5,0.2-0.9,0.3c1.9,2.1,3.7,4,5.3,6c0.6,0.8,1.3,2.1,1.1,2.9
	c-0.2,0.8-1.6,1.2-2.6,1.9c0.9,1.6,2,3.5,2.9,5.6c0.3,0.8,0,2.1-0.5,2.7c-0.4,0.4-1.7,0.1-2.5-0.2
	C257.9,407.1,257.1,406.3,256.2,405.8z M183.5,213.4c0.9-1.2,1.6-2.5,2.7-3.5c0.6-0.6,1.7-0.5,2.7-0.8c0.2,0.8,0.6,1.7,0.5,2.5
	c-0.1,0.8-0.7,1.6-1,2.4c-1.6,3.7-2.1,7.5-0.8,11.5c0.7,2.1,2.7,3,4.8,1.9c-0.3-2.2-0.7-4.4-0.8-6.7c-0.1-0.8,0.3-2.2,0.7-2.3
	c1.8-0.6,1.4-2,1.7-3.3c0.6-2.4,1.3-4.8,2.3-7c0.4-0.9,1.4-1.9,2.4-2.2c0.9-0.3,2,0.2,3.1,0.3c-0.3,0.9-0.4,2-0.9,2.6
	c-2.2,2.4-3.1,4.8-2.6,7.9c1.2-5.3,5.9-7.1,9.5-10.1c0.3-0.2,0.7-0.2,1.1-0.3c2.4-0.5,4.8-0.9,7.2-1.4c0.1-0.3,0.1-0.6,0.2-1
	c-0.6-0.7-1.1-1.8-1.9-2.1c-2.9-1.1-5.9-1.9-8.8-2.8c-0.6-0.2-1.5-0.5-1.7-1c-0.2-0.5,0.2-1.4,0.7-1.8c1.5-1.3,3.1-2.5,5-3.9
	c-1.8-0.7-3.7-1.7-5.7-2c-2.3-0.3-4.6,0.1-6.9,0c-0.6,0-1.3-0.7-1.9-1c0.4-0.6,0.7-1.5,1.2-1.8c1.1-0.5,2.4-0.8,3.3-1
	c-0.2-1-0.8-2.3-0.6-2.5c1.2-0.9,2.7-1.5,4.5-2.4c-1.9-0.4-3.5-1-5.1-0.9c-2.5,0.1-4.1-0.3-3.5-3.4c-4.3-0.1-7.9,1.1-11.4,3.2
	c-0.7,0.4-1.9,0-2.8,0c0-1-0.2-2.2,0.2-3c0.4-0.8,1.4-1.3,2.3-1.7c1.5-0.7,3.1-1.3,4.6-1.9c-0.9-0.7-1.7-2-2.6-2.1
	c-2.8-0.3-5.7-0.5-8.4,0.1c-7.6,1.8-12.2,6.7-13.5,14.5c-0.2,1.3-0.6,2.6-0.9,3.9c0.3,0.2,0.7,0.4,1,0.6c0.7-0.8,1.6-1.5,2.2-2.3
	c1.6-2.3,3-4.7,4.6-7c0.3-0.4,1.6-0.4,2.2-0.1c0.4,0.2,0.5,1.4,0.2,2.1c-0.4,1-1,2-1.7,2.9c-1,1.5-1.4,2.8,0.2,3.9
	c1-0.7,2.3-2,2.9-1.8c1.9,0.6,2.4-0.7,3.3-1.5c2.1-1.9,4.6-3,7.5-2.5c0.7,0.1,1.3,1.3,2,1.9c-0.6,0.5-1.1,1.3-1.8,1.5
	c-5.8,1.4-8.7,5.4-8.4,10.8c0.9-0.7,2.1-1.8,3.4-2.6c0.6-0.4,1.6-0.1,2.4-0.2c0,0.8,0.3,1.7,0,2.3c-0.5,1.1-1.2,2.2-1.9,3.2
	c0,0-0.1,0.1-0.1,0.1c0-0.1,0-0.1,0-0.2c0.7,0.2,1.5,0.4,2.2,0.5c1.2-1.3,2.2-2.6,3.4-3.6c0.5-0.4,1.7-0.6,2.3-0.3
	c0.6,0.3,1.1,1.3,1.2,2c0.1,0.6-0.5,1.4-1,1.8c-3.4,2.8-3.3,7.2-5.1,10.7C183.3,212.8,183.5,213.1,183.5,213.4c0-0.1,0-0.1-0.1-0.1
	C183.5,213.3,183.5,213.3,183.5,213.4z M96,377.1L96,377.1L96,377.1c1.9-4.4-1-7-3.8-9.6c-4.6-4.3-10.2-6.5-16.3-7.8
	c-2-0.4-3.5-0.2-5.2,1c-1.4,1-3,1.9-4.6,2.5c-1.7,0.7-3.2,0.2-4-1.6c-0.8-1.7-0.2-3,1.3-3.9c0.7-0.4,1.3-0.9,2.2-1.4
	c-3.7-4.1,0.6-5.8,2.2-8.5c-2.9,1.4-5.8,3-8.5,4.7c-0.7,0.4-1.3,1.3-1.4,2.1c-0.6,3.9-0.9,7.8-1.4,11.7c-0.3,2-1.6,2.9-3.6,2.7
	c-1.4-0.1-2.8-0.3-4.3-0.5c0,0.4-0.1,0.7,0,0.9c2,4.9,1.2,7.4-3.4,10.2c-1.2,0.7-2.4,1.4-3.4,2.2c-2.7,2.1-5.4,4.3-8.2,6.3
	c-5.1,3.8-11.6,5.4-15.5,10.7c2.7,2.5,6.1,2.6,9.6,2c0,0.1-0.1,0.2-0.1,0.3c0,0,0.1,0,0.1,0c0-0.1,0-0.1,0-0.2c-0.5-2.1-0.3-4,2-4.7
	c5.9-1.9,10.6-5.5,15.4-9.2c4.6-3.6,9.1-7.1,14.8-8.8c0.5-0.1,1.1-0.8,1.1-1.3c0.1-3.6,1.9-6.2,5.2-7.5c2.9-1.1,6.1-2.3,9.1-2.4
	c3-0.1,5.7,1.9,7.8,4.2c2.4,2.7,1.6,5.2-1.9,6c-2.8,0.6-5.6,1.2-8.1,1.7c0.2,15.9-11.3,22.1-22.5,28.9c0.7,2,0.5,3.8-1.7,5
	c-0.3,0.2-0.5,0.8-0.5,1.2c0.4,2.8-1.3,3.7-3.6,4.5c-2.8,1-4.8,2.9-6,6c0.5-0.1,0.7-0.1,0.9-0.2c6.5-3.7,14.4-4.2,20.4-9.1
	c0.4-0.3,0.9-0.3,1.3-0.6c0.5-0.4,1.2-0.9,1.4-1.4c0.7-2.9,2.4-4.4,5.2-4.7c0.7-2.9-3.1-6.1,0.9-8.4c3-1.7,5.9-1.5,9,0.5
	c0-3.4-1.4-5.9-2.9-8.4c-1.4-2.3-0.1-4.7,2.5-4.8c1,0,2.2,0.4,3.1,1c2,1.3,3.9,2.8,6.4,4.6c-0.6-2.5-1-4.4-1.5-6.3
	c-0.6-2-1.4-3.9,0.9-5.3c0.3-0.2,0.1-0.9,0.3-1.3c0.5-0.9,1.1-1.8,1.8-2.5C91,375.5,93.5,377.1,96,377.1z M154.1,463.7
	c0-0.1,0-0.3,0-0.4C154.1,463.4,154.1,463.5,154.1,463.7c0.2,0.2,0.5,0.3,0.7,0.6c8.4,9.3,16.9,18.5,25.3,27.8
	c5.6,6.3,11.1,12.7,16.6,19c0.9-0.3,1.7-0.8,2.5-0.9c3.2,0,5.4-1.5,7.3-4c1.5-2.1,3.8-2.8,6.2-1.9c2.3,0.9,4.4,2.1,6.6,3.2
	c0.9-0.8,1.9-1.8,2.8-2.7c-5-7-9.8-13.9-14.8-20.7c-5.1-6.8-10.3-13.4-14.9-19.3c-4.7,1.3-8.3,2.8-12,3.3
	c-8.3,1.1-16.1-1.2-23.7-4.1C155.9,463.8,155,463.8,154.1,463.7z M180.2,454c0-0.1,0.1-0.2,0.1-0.1
	C180.2,453.7,180.2,453.8,180.2,454c0.5,1,1.1,2,1.4,3c0.1,0.4-0.2,1.1-0.5,1.4c-0.1,0.1-0.9-0.1-1.2-0.3c-0.6-0.5-1.1-1.2-1.5-1.9
	c-2.8-4.2-4.5-8.9-6.1-13.7c-1.5-4.4-0.2-7.7,2.1-10.9c2.4-3.4,5.2-6.6,7.7-9.6c-3.4-1.8-7.4-3.4-10.8-5.9
	c-15.1-10.9-28.4-23.6-38.7-39.2c-4.8-7.3-8.5-15.1-10.4-23.7c-0.2-0.7,0.3-1.6,0.4-2.3c0.6,0.5,1.4,1,1.7,1.7
	c1.2,2.4,2.3,4.9,3.5,7.4c11.4,23.9,28.6,42.5,51.5,55.6c4.9,2.8,10.1,4.4,15.9,4.1c7.1-0.4,12.7-4.1,17.3-9.1
	c8.5-9.2,16.8-18.6,24.9-28.1c6-7,11.1-14.8,14.4-23.5c2.8-7.4,3.9-14.9,1.3-22.6c-0.3-0.8-0.9-1.6-1.3-2.4
	c-0.2,0.1-0.4,0.1-0.6,0.2c0.6,1.8,0.2,2.5-1.6,1.7c-0.6-0.3-1.4-0.3-2-0.5c-0.9-0.3-1.7-0.7-2.5-1.1c0.7-0.6,1.5-1.1,2.2-1.7
	c1.1-0.9,2.9-1.8,3-2.8c0.4-2.9-0.3-5.7-2.5-8c-4.3-4.5-11.5-5.4-16.7-1.8c-0.8,0.6-1.4,1.8-1.6,2.8c-0.7,6.8,1.2,13.2,2.6,19.7
	c1.5,7.1,0.9,9.5-5,13.7c-1.7,1.2-3.2,2.5-4.9,3.7c-0.4,0.3-1.3,0.5-1.7,0.3c-0.4-0.2-1-1.2-0.8-1.5c0.8-1.7,1.5-3.5,2.7-4.8
	c1.4-1.4,3.5-2,5.1-3.1c2.2-1.6,2.5-4,1.2-6.3c-0.7-1.4-1.5-2.9-1.7-4.5c-0.7-6-1.4-12.1-1.5-18.2c0-3.6,1-7.3,2.1-10.8
	c0.7-2.4,2.3-4.6,5.1-5.3c0.2,0,0.4,0.2,0.7,0.3c-0.2,0.7-0.3,1.3-0.4,1.4c3.7-0.1,7.5-0.6,11.1-0.2c4.9,0.5,8.8,3,10.4,8
	c0.3,0.9,0.2,1.8,0.3,2.8c-0.2,0.1-0.5,0.1-0.7,0.2c-0.3-0.5-0.6-1-0.9-1.5c-1.7-4-4.8-6.1-9-6.7c-4.2-0.6-8.1,0.3-12,1.7
	c-3.2,1.2-3.2,1.3-2.5,5c0.4-0.2,0.7-0.4,1-0.6c5.3-3.2,14.6-3,19.1,1c1.6,1.4,2.9,1.3,4.6,1.5c2.6,0.4,2.8-1.4,3.2-3.1
	c0.1-0.3,0.5-0.6,0.8-0.9c1-1.2,2.3-2.3,3-3.6c1.6-3.3,2.9-6.8,4.3-10.2c0.9-2.1,0.1-4.2-2.2-4.9c-1.3-0.4-2.9-0.7-4.2-0.5
	c-3.1,0.6-6.2,1.6-9.3,2.3c-1.2,0.3-2.6,0.2-3.9,0.3c0-1.3-0.3-2.6,0-3.9c0.1-0.7,1-1.5,1.7-1.7c2.2-0.9,4.5-1.8,6.9-2.2
	c4.3-0.8,8.5-0.6,11.5,3.5c0.2,0.2,0.6,0.3,1.6,0.6c0.4-9,0.8-17.7,1-26.3c0.1-3.7-0.5-7.3-2.4-10.6c-0.7-1.1-1.2-1.8-2.6-1.3
	c-2.2,0.7-4.2-0.1-5.8-1.6c-1.6-1.6-3-3.5-4.4-5.3c-0.4-0.5-0.8-1.4-1.2-1.4c-2.4,0.1-3.2-1.9-4.5-3.2c-2.6-2.7-5.1-5.5-7.7-8.4
	c-0.3,0.6-0.4,0.8-0.5,1c-0.8,3-1.6,3.3-4.1,1.4c-2.1-1.5-4.2-3-5.8-4.1c-1.7,0.2-2.9,0.6-4,0.5c-1.9-0.2-3.8-0.8-5.7-1.1
	c-1.4-0.3-2.8-1.1-4.1,0.6c-0.3,0.4-1.7,0.2-2.4-0.1c-2.3-1-4.6-2.2-6.1-2.9c-2.8,0.6-5,1.8-6.7,1.3c-2.9-0.8-5.8-0.9-8.7-1.1
	c-2.2-0.2-4.3-1.1-6.7-0.2c0.2,3.1-2.3,2.3-4.2,2.5c-0.3,0.6-0.4,1.4-0.8,1.7c-1.8,1.3-3,3-3.3,5.3c-0.1,0.5-1,1-1.6,1.2
	c-1,0.3-2.1,0.1-3.1,0.5c-0.9,0.3-1.7,1-2.3,1.7c-0.8,1-1.3,2.2-2,3.4c1.5,1.1,1.9,1.9,1.3,3.1c-0.9,1.7-2.3,1.4-3.8,0.8
	c-2.5-1-5-2.1-7.5-3.1l-0.1,0.1l0.2-0.1c0.4,0.6,0.7,1.3,1.2,1.8c0.9,0.8,2.2,1.2,2.9,2.1c0.6,0.7,0.9,1.9,0.8,2.7
	c-0.1,0.6-1.1,1.3-1.8,1.5c-1.5,0.3-3.1,0.3-4.8,0.5c0.2,0.5,0.4,0.7,0.5,0.9c0.4,1.1,1.3,2.5,1,3.4c-0.3,0.8-1.9,1.3-3.1,1.5
	c-1.7,0.4-3.5,0.4-5.4,0.6c0,0.7,0.1,1.3,0.1,2c0.8,0.1,1.5,0.1,2.1,0.4c0.5,0.3,1,0.9,1,1.4c0.1,0.5-0.3,1.4-0.7,1.6
	c-2.1,0.8-3.9,2.4-6.5,1.4c-1-0.4-2.2-0.2-3.6-0.3c0.7,2.3-0.3,3.4-2.2,3.9c-0.5,0.1-1,0.6-1.3,1c-1.1,1.5-2.1,3.1-3.2,4.6
	c0.3-0.4,1.5-0.5,2.7-0.2c1.4,0.4,2.9,0.8,4.1,1.6c0.6,0.4,0.9,1.9,0.7,2.7c-0.2,0.6-1.4,1.3-2.2,1.4c-1.6,0.2-3.2,0.1-4.9,0.1
	c-0.1,2.1,2.3,4.4-0.8,6.1c1,0.5,2,0.7,2.5,1.3c0.6,0.8,1.5,2.3,1.2,2.7c-1.4,1.9-3.1,3.4-4.8,5.1c-0.1,0.1-0.3,0-0.5,0.1
	c-3.6,1.4-7.1,1.6-10.5-0.4c-0.6-0.4-1.5-0.3-2.8-0.6c2,4.1,0.9,7.2-1.8,10.2c-0.8,0.9-0.8,2.7-0.9,4c-0.1,1.5,0.4,3.2,0,4.5
	c-0.4,1.3-1.7,2.5-2.9,3.1c-0.4,0.2-2-1.2-2.7-2.1c-0.5-0.7-0.2-1.9-0.2-2.8c0.8,0.4,1.6,0.7,2.4,1.1c0.1,0.1,0.3,0,0.7,0
	c0-0.7,0.3-1.4,0.1-2c-1.2-3.7-0.3-6.9,2.3-9.8c1.1-1.3,1.4-2.9,0.4-4.3c-1.3,0.6-2.4,1.5-3.5,1.6c-3.3,0.4-5,2.5-6.4,5.1
	c0.2,0.3,0.5,0.5,0.5,0.7c0.2,1,0.4,1.9,0.6,2.9c-1,0-2.3,0.3-3-0.2c-2-1.4-3.1-3.5-2.4-5.9c1.2-4.1,1.3-8.8,6.1-11.2
	c-1.2-0.8-1.9-1.3-2.8-1.9c-0.3,0.4-0.5,0.6-0.6,0.9c-0.6,1.1-0.9,2.6-2.7,2.1c-1.8-0.5-1.1-2-1.2-3.2c-0.1-2.1,0.1-4.5-2.6-5.7
	c-0.5,4.4-1,8.7-1.5,13c-1.2,10.9,0.7,21.1,7.9,29.8c4.2-4.4,6.7-5.2,10.4-3.5c2.8,1.3,5.1,5.7,4.4,9.2c-1,5.7-5.6,5.7-9.6,5.7
	c-0.6,2.4-1.1,4.5-1.6,6.8c5.6,4.1,10.1,9.5,12.2,16.5c1.4,4.8,1.1,9.5-1.8,13.8c-0.7,1.1-1.2,2.6-1.2,3.9
	c0,13.9-4.1,26.1-14.3,35.8c-2.1,2-4.5,3.6-7,5.5c1.1,0.1,2,0.3,2.8,0.4c1,0.1,1.9,0.3,2.9,0.5c11.7,2,22,6.8,29.9,16.1
	c3.2,3.7,6.5,7.3,9.8,10.9c0.6,0.6,1.3,1.2,2,1.7c3.5,2,7.1,3.8,10.5,5.8c6,3.5,12.3,5.9,19.3,6.2c4.9,0.2,9.6-0.4,14.5-2.6
	c-2.8-2.7-5.3-5.2-7.9-7.6C181.1,454.1,180.6,454.1,180.2,454z M52.4,310.9c-5.7,1.5-10.1,4.3-13,8.6c-7,10.3-12.1,21.3-12.7,34
	c0,0.5,0.1,1.1-0.2,1.4c-2.4,3.2-4.7,6.4-7.2,9.5c-1.4,1.8-3.1,3.5-4.5,5.4c-1.9,2.6-2.4,5.5-1.6,8.9c1-1.4,1.7-2.7,2.7-3.6
	c4.2-3.7,8.7-7.1,12.9-10.8c3.3-2.9,6.5-6,7.4-10.8c0.4-2,2-3.8,3.5-5.4c1.2-1.3,2.9-1.3,4.3,0.2c0.7,0.8,1.5,1.6,2.4,2.7
	c0.8-1.7,1.3-3.1,2.1-4.4c1.7-2.9,3.3-5.9,5.5-8.4c2.6-2.9,5.5-2.6,8,0c3.2-2.7,6.2-5.5,9.5-8.1c2.3-1.8,5.1-2.9,8.1-2.3
	c2.3,0.5,3-0.5,3.6-2.3c1.8-6.3,1-12.6,0.2-19.2c-2.1,3.7-3.9,7.3-6.1,10.5c-1.9,2.8-4.1,5.6-6.7,7.7c-3.8,3.1-5.3,2.6-8.5-1.4
	c-2.4,1.7-5.1,3.1-7.2,5.2c-4.6,4.5-8.8,9.3-13.2,14c-1.2,1.3-2.5,2.2-4.2,1.1c-1.6-1.1-2.1-2.6-1.4-4.4c1.2-3.2,2.4-6.4,3.7-9.6
	C42.6,322.4,46.7,316.5,52.4,310.9z M138.7,236.7c-0.4-0.5-0.8-0.8-1-1.3c-0.2-0.7-0.5-1.8-0.2-2c0.6-0.4,1.6-0.5,2.3-0.4
	c0.6,0.1,1.1,0.9,1.7,1.3c1.7,0.9,3.4,1.8,5.2,2.4c0.6,0.2,1.7-0.2,2-0.7c0.3-0.5,0.1-1.5-0.2-2.1c-0.2-0.6-0.8-1-1.3-1.4
	c-4.1-3.2-6.7-7.5-8.5-12.3c-1-2.7-2-5.5-3.1-8.2c-0.2,0-0.4,0-0.6,0c0,0.5-0.2,1.1-0.1,1.6c1,3.1,2.1,6.2,3.1,9.3
	c0.5,1.4,1,2.7,1.2,4.1c0.1,0.6-0.3,1.7-0.8,1.9c-0.5,0.3-1.5,0-2.2-0.3c-0.4-0.2-0.8-0.7-1.4-1.3c0,1.3,0,2.1,0,2.8
	c-0.9,0.5-1.7,0.9-2.5,1.3c-0.6-0.8-1.1-1.6-1.7-2.4c-0.9,0.7-1.7,1.1-2.2,1.7c-0.7,0.8-1.7,1.8-1.5,2.5c0.6,3.3-0.4,7,2,10
	c0.2,0.3,0.4,0.9,0.3,1.1c-1.5,1.9,0,2.7,1.3,3.5c0.8,0.5,1.6,1,2.5,1.4c-0.3,0.4-0.5,0.8-0.8,1.3c-0.9-0.2-1.9-0.1-2.7-0.5
	c-4.4-2.6-7.9-6.1-9.4-11.1c-0.4-1.3-1-2.5-1.5-3.8c-0.3,0.1-0.5,0.1-0.8,0.2c-0.2,2.1-1.2,4.6-0.4,6.1c3.9,7.8,9.4,14.2,17.7,17.6
	c0.5,0.2,1.3,0,1.9-0.1c1.3-0.2,2.6-0.8,4-0.8c2.1,0,4.1,0.3,6.2,0.5c-0.2-0.6-0.4-0.7-0.6-0.7c-6.7-2-11.3-6.1-13-13.2
	c-0.1-0.6-0.1-1.7,0.2-1.9c0.6-0.3,1.4-0.1,2.2,0c0.4,0.1,0.8,0.4,1.2,0.5c0.6-0.7,1.1-1.3,1.6-1.8c-0.7-0.9-1.4-1.9-2.1-2.8
	C137.5,238.1,138.1,237.5,138.7,236.7z M253.2,211.2c1.6,2.8,3.2,5.8,4.9,8.8c0.8,1.4,1.9,2.7-0.1,3.8c-1.7,0.9-2.5-0.3-3.3-1.7
	c-2.2-3.6-5-6.7-8.5-8.9c-1.1,0.5-2.1,1-3.1,1.5c5.6,5.4,10.6,11.1,11.2,19.5c0.4-0.1,0.8-0.2,1.2-0.3c0.1-1.1,0.3-2.2,0.1-3.3
	c-0.1-1-0.9-2-1-2.9c0-0.8,0.5-1.9,1.1-2.3c0.4-0.3,1.6,0.2,2.2,0.7c0.8,0.6,1.4,1.6,1.9,2.5c1,1.9,2.5,2.7,4.7,2.7
	c-0.3-1.2-0.7-2.4-0.8-3.5c-0.1-1.1-0.3-2.5,0.3-3.3c0.4-0.5,1.9-0.2,3.3-0.3c1.4-1.9,2.1-2.1,4-0.1c2.6,2.6,5,5.4,7.6,8
	c0.6,0.6,1.5,1,2.3,1.4c0.2-1.7-0.3-3-0.2-4.2c0.1-0.9,1-2.4,1.5-2.5c1.9-0.1,3.8,0.4,5.8,0.6c-1.3-6.8-4.9-11.9-11.3-15.6
	c0.5,2.3,1.5,4.3-1.2,5.1c1.3,2.9,2.7,5.6,3.8,8.4c0.3,0.7-0.5,1.9-0.8,2.9c-0.9-0.4-2.1-0.6-2.6-1.2c-1-1.3-1.7-2.9-2.6-4.3
	c-1.3-2.3-3-4-5.9-4.4c-1.2-0.2-2.5-1-3.5-1.9C261.2,213.7,258.4,210.1,253.2,211.2z M128.7,275.7c-2.3-2-4.4-3.7-6.4-5.7
	c-0.6-0.6-0.4-1.8-0.6-2.8c0.9-0.1,1.7-0.3,2.6-0.4c0.9-0.1,1.8,0,3,0c-1.9-3.7-5.5-5.4-5.9-9.3c0-0.3-0.6-0.6-0.8-0.9
	c-2.6-3.1-5.1-6.1-7.8-9.2c-0.6-0.7-1.6-1.2-2.4-1.8c-0.2,0.2-0.3,0.4-0.5,0.5c1.7,4,4.2,7.6,7.1,10.9c0.6,0.6,0.4,1.9,0.5,2.9
	c-1,0.1-2.2,0.6-3,0.3c-1.5-0.5-2.9-1.6-4.5-2.4c-0.6,5,4.1,6.4,5.8,9.2c-0.8,1.2-1.5,2.2-2.7,4c-3.3-3.2-6.6-6.3-9.4-9
	c-0.6,3,6.8,11.6,14.1,14.6c1.2-0.2,2.6-0.6,3.6-0.2C125.6,278.6,125.5,278.7,128.7,275.7z M175.2,440.4c-0.2,0.1-0.4,0.2-0.7,0.3
	c0.9,1.9,1.4,4.4,2.8,5.5c7.8,5.3,14.3,12,19.9,19.5c8.6,11.6,17,23.4,25.4,35.1c2.6,3.6,2.6,3.6,6.9,3.8
	C212.7,482.1,196.6,459,175.2,440.4z M278.4,247.7c-0.5,1.5-0.9,2.9-1.5,4.2c-0.3,0.6-1.3,1.4-1.9,1.3c-0.6-0.1-1.5-0.9-1.7-1.6
	c-0.3-1.3-0.4-2.7-0.3-4.1c0.1-2.5-1.1-3.8-3.4-4.5c-0.6,3.1-1.4,5.9,0.5,8.9c1.1,1.7,1.3,4.1,1.9,6.1c0.2,0.6,0.5,1.7,0.8,1.7
	c0.7,0,1.6-0.3,2.1-0.8c1.5-1.7,2.9-3.4,4.2-5.2C280.5,251.7,280.9,249.6,278.4,247.7z M113.7,328.7c-2.9-0.1-4.9,1.4-5,3.9
	c-0.1,2.1,2.3,4.3,4.8,4.4c2.4,0.1,4.2-1.5,4.4-3.8C118.1,330.5,116.6,328.8,113.7,328.7z M622,545.2c0.5-0.5,1.1-1,1.6-1.6
	c2.8-3.4,5.6-6.8,8.5-10.1c3.2-3.7,7.3-5.2,12.1-3.7c5.3,1.6,8.6,5.2,9.8,10.6c1.2,5.6,0.1,11.1-1.7,16.3c-2,5.8-4.6,11.4-6.9,17.1
	c3.5-0.9,6.9-2.7,9.7-5.4c2.6-2.5,4.9-5.3,7.2-8c0.5-0.6,0.8-1.4,1-2.1c3.1-11.4,8.9-21.1,17.4-29.2c7.2-6.9,17.2-6.6,24.2,0.6
	c2.1,2.1,2.6,4.6,1.9,7.3c-2.1,8.6-6.5,15.9-13,21.8c-3.8,3.4-8.8,4.9-13.8,5.9c-1.8,0.4-2.3,1.1-2.3,2.9c0,6.6,5.1,10.6,11.4,8.7
	c5.2-1.6,9.2-5,12.6-9c4.6-5.5,8.8-11.4,13.1-17.2c2-2.7,2.8-2.7,4.6,0.1c1.6,2.5,1.3,5-0.1,7.3c-6.2,10.3-13.7,19.3-24.5,24.9
	c-11.6,6-25.1,2.6-31.1-10.6c-1.9,1.5-3.7,3.1-5.6,4.5c-5.5,4.1-11.8,6-18.4,7.2c-1.4,0.3-3,1-4.1,2c-4.8,4.2-10,7.3-16.5,6.2
	c-3.5-0.6-6.8-2.3-10.6-3.6c-1.6,4.7-3.5,9.6-4.9,14.7c-1.8,6.6-3.1,13.3-4.6,19.9c-0.5,2.2-1.5,3.4-3.9,3.4c-6.1,0.1-10-4-8.8-10
	c1.6-7.8,3.7-15.6,5.6-23.4c0.2-0.7,0.4-1.4,0.8-2.6c-4.8,4-9.2,7.8-15.6,6.6c-6.2-1.2-10.3-4.8-12.6-10.9c-2.2,2.3-4.2,4.6-6.4,6.7
	c-4.8,4.5-10.1,8.3-17,8.8c-9.5,0.8-18.8-2.2-24.2-12.8c-2.4,2.6-4.5,5.4-7.1,7.6c-3.9,3.3-7.9,6.6-12.4,9
	c-11.9,6.3-24.9,1.6-30.4-10.4c-0.6,0.7-1.2,1.4-1.7,2c-6.8,8.7-14.6,16.3-24.1,21.9c-5.3,3.1-10.9,5.2-17.2,4.5
	c-7.3-0.8-12.9-4.8-17.5-10.2c-5.3-6.2-8.3-13.5-9.1-21.6c-0.5-5.4,1.8-9.1,6.1-11.9c11.6-7.8,22.1-16.8,31.1-27.6
	c5.4-6.5,10.1-13.5,11.8-22.1c1.5-7.5-1.2-11.8-8.6-13.8c-6-1.7-11.8-0.5-17.6,0.7c-21.7,4.6-40.8,14.6-58.3,28
	c-1.2,0.9-1.2,1.7-0.7,3c2.2,5.4,1.8,6.8-2.4,10.8c-6.3,5.9-12.6,11.9-18.8,18c-1.7,1.6-3.2,2-5.4,1.2c-6.5-2.7-8-5.8-5.6-12.4
	c2-5.3,5.6-9.5,9.4-13.6c11.7-12.3,26-21.1,40.7-29.3c12.5-7,25.5-12.8,39.8-15.3c6.7-1.2,13.4-2.4,20.2-0.2
	c12.5,4.1,21.7,16.1,21.3,28.2c-0.2,7.3-3.2,13.5-7.4,19.2c-7,9.6-16.2,16.7-26.1,22.9c-5.2,3.2-10.5,6.1-16,9.2
	c2.5,8,6.8,14.6,14.1,19.1c5.5,3.3,11.1,3.3,16.8,0.5c7.4-3.7,13.2-9.4,18.3-15.7c0.7-0.9,1.4-1.8,2.1-2.7c2.3-2.9,4-6,5.1-9.7
	c3.2-10.2,8.8-19.1,16.6-26.4c7.2-6.8,16.8-6.5,23.9,0.5c2,2,2.9,4.3,2.2,7.2c-2,8.8-6.5,16.3-13.1,22.3c-3.8,3.4-8.8,4.9-13.8,5.9
	c-1.9,0.4-2.3,1.2-2.3,2.9c0,7,5.6,11.3,12,8.5c4.1-1.9,8-4.8,11.3-8c4-3.9,7.2-8.6,10.6-13.1c0.6-0.8,1-1.8,1.2-2.8
	c3.6-13.2,10.9-23.8,21.9-31.9c4.8-3.5,10.1-4.9,15.9-2.8c6,2.2,9,7.1,7.4,13.3c-1.1,4.3-2.8,8.5-4.8,12.5c-2,3.8-7.3,3.5-9.4-0.2
	c-0.4-0.6,0.1-1.9,0.5-2.7c1.8-3.1,4-6,5.6-9.2c0.7-1.3,0.3-3.2,0.4-4.8c-1.6,0.3-3.7,0.2-4.8,1.1c-3,2.5-5.8,5.3-8.1,8.5
	c-4.6,6.2-8.1,13.1-9.1,21c-0.3,2-0.1,4.2,0.4,6.2c1.7,6.4,8.3,9.4,14,6.2c3.2-1.8,6.2-4.3,8.7-7.1c3.8-4.3,7-9,10.3-13.6
	c0.8-1.1,1-2.7,1.5-4c3.7-9.7,7.4-19.3,11.2-28.9c1.3-3.2,2.3-3.8,5.7-3.4c1.9,0.2,3.8,0.7,5.6,1.3c4.3,1.6,5,3.5,3.1,7.6
	c-2.5,5.6-5.1,11.2-7.6,16.9c-2.1,4.9-4.1,9.8-5.7,14.8c-0.9,3-1.3,6.3-1.3,9.5c-0.1,3.7,3.1,5.3,5.9,2.9c3.3-2.9,6.3-6.2,9.1-9.6
	c5-6.1,9.1-12.7,11.4-20.5c3-10,6.5-19.8,9.9-29.6c0.3-0.8,2.1-1.8,2.9-1.6c3,0.7,5.9,1.8,8.8,2.9c1.6,0.6,1.4,2,1,3.3
	C624.8,536.9,623.4,541.1,622,545.2c-0.1,0.4-0.3,0.8-0.5,1.1c0,0,0,0,0.1,0.1c0,0,0-0.1,0-0.1C621.6,545.9,621.8,545.6,622,545.2z
	 M629.6,571.2c4.1-6.6,7.3-13.7,9.3-21.3c1-3.8,1.4-7.9,2-11.8c0.1-0.7-0.5-1.8-1.1-2.1c-0.6-0.3-1.7,0.1-2.3,0.5
	c-0.9,0.6-1.7,1.5-2.4,2.3c-9.3,11.1-16.6,23.4-22.3,36.7c-1.8,4.2-0.9,5.9,3.8,6.4c1.8,0.2,3.6-0.5,5.6-0.8
	C620.1,575.8,624.9,569.6,629.6,571.2z M482,580.4c0.6,0.1,0.8,0.2,0.9,0.1c8.1-4.8,13.5-11.9,17.3-20.4c0.2-0.4,0-1.4-0.4-1.7
	c-0.4-0.3-1.3-0.3-1.8,0c-1.1,0.8-2.3,1.6-3.1,2.7c-3.5,4.7-7,9.4-10.3,14.2C483.7,576.8,483,578.5,482,580.4z M679.3,557.5
	c0.2,0.2,0.3,0.3,0.5,0.5c1-0.6,2.1-1,3-1.7c5.6-4.5,10.1-10,13.5-16.4c0.6-1.1,0.3-2.7,0.4-4.1c-1.3,0.6-3,0.8-3.8,1.8
	c-4.3,5.7-8.5,11.6-12.6,17.5C679.8,555.8,679.6,556.7,679.3,557.5z M427.8,288.6c2.9-4.1,5.4-8.5,8.6-12.4c4-4.8,8.9-5.4,14.5-2.3
	c5.2,2.9,7.8,7.5,8.1,13.4c0.4,8.5-1.8,16.5-5.1,24.3c-0.3,0.8-0.7,1.6-1,2.4c0,0,0.1,0.1,0.4,0.9c2.9-1.9,6-3.4,8.5-5.6
	c4.1-3.6,6.9-8,8.2-13.8c1.9-8.6,4.7-17,7.2-25.5c1.1-3.7,2.3-4.3,6.1-3.6c1.7,0.3,3.5,0.7,5.1,1.3c4,1.5,4.8,3.2,3.4,7.2
	c-2.1,5.8-4.2,11.6-6,17.5c-1.4,4.3-2.7,8.6-3.6,13c-0.5,2.6-0.5,5.5-0.2,8.1c0.2,1.3,1.4,3.2,2.6,3.6c1.1,0.4,3.3-0.3,4.2-1.3
	c6.7-7.2,12.5-15,15-24.8c2.3-8.9,4.7-17.7,7.2-26.5c0.2-0.7,1.2-1.6,1.9-1.7c3.6-0.6,7,0.2,10.1,2.3c2,1.4,2.8,3.2,2.1,5.6
	c-2.1,6.6-4.3,13.1-6.4,19.7c-0.9,2.8-1.6,5.7-2.4,8.6c0.2,0.1,0.4,0.1,0.6,0.2c3.1-5,6.1-10.1,9.3-15.1c4.7-7.4,9.5-14.7,15.7-21
	c5.2-5.3,10.5-6,18-2.2c3.8,2,5,4.7,3.7,8.8c-2.4,7.4-5.2,14.7-7.5,22.1c-1.5,4.9-2.3,10-3.1,15c-0.2,1.3,0.6,3.4,1.6,4.1
	c1.7,1.1,3.2-0.6,4.1-1.9c3.3-4.9,6.5-9.9,9.7-14.9c2.4-3.7,3.8-7.8,4.9-12.2c2-8.4,4.6-16.7,7.1-25c1-3.5,2.2-4.2,5.7-3.6
	c2.4,0.4,4.8,1.2,7.1,2.1c1.9,0.7,2.6,2.3,2.2,4.3c-0.2,1.1-0.6,2.2-0.9,3.2c-3,9.6-6.2,19.1-9,28.7c-0.8,2.8-0.6,5.9-0.4,8.8
	c0.1,1.4,1.3,3.3,2.4,3.7c1.3,0.4,3.4-0.4,4.4-1.3c2.2-2,3.9-4.4,5.7-6.8c1-1.3,1.8-2.6,2.7-4c2.8-4.5,5.1-9.1,6.6-14.3
	c2.6-9.6,7.1-18.4,14.1-25.7c3.7-3.8,8-5.4,13.1-3.5c3.4,1.2,6.5,3,9.8,4.5c0.3,0.1,0.5,0.5,0.8,0.5c6.4,1.4,7.5,6.4,7.7,11.8
	c0.3,8.5-2.5,16.4-6,24.1c-0.3,0.7-0.7,1.4-1.1,2.4c4-1,7.1-2.8,9.5-5.7c3.6-4.4,6.7-9,8-14.8c2-9,4.7-17.8,7.2-26.7
	c0.2-0.7,1.2-1.6,2-1.7c3.5-0.5,6.9,0.2,9.9,2.2c2.1,1.4,3,3.3,2.2,5.8c-2.2,6.9-4.5,13.7-6.6,20.6c-0.8,2.6-1.2,5.3-1.8,7.9
	c0,0.1-0.1,0.2-0.1,0.3c0-0.1,0-0.3,0-0.4c0.7-0.9,1.4-1.8,2-2.8c6.5-10.9,12.8-21.9,21.4-31.4c2.7-3,5.5-6.1,10.1-6.4
	c3.7-0.2,7.2,0.6,10.3,2.6c3.2,2.1,4.3,4.6,3.2,8.2c-1.9,6-4.2,12-6.1,18c-1.6,5.1-3,10.3-4.3,15.5c-0.4,1.7-0.4,3.5-0.2,5.3
	c0.1,1,0.9,2.4,1.7,2.8c0.7,0.3,2.2-0.3,2.9-1c1.6-1.6,3.2-3.4,4.4-5.4c4.1-6.9,8.1-13.9,12.1-20.8c1.4-2.5,2.3-2.6,4.2-0.3
	c1.9,2.3,2.1,4.9,0.8,7.4c-4.3,8.2-9.1,16-15.5,22.8c-7.3,7.6-20.5,3.3-24.2-2.6c-2.1-3.4-2.7-7.1-1.5-10.6
	c2.6-7.9,5.7-15.6,8.6-23.4c0.8-2.1,1.8-4.1,2.5-6.3c0.2-0.7-0.1-2.1-0.6-2.5c-0.5-0.4-1.9-0.1-2.5,0.4c-2.1,2.1-4.3,4.1-6,6.6
	c-9.4,13.5-17.4,27.7-22.7,43.3c-0.8,2.3-2,3.2-4.4,2.9c-5.5-0.9-10.5-2.5-12.4-8.7c-2.6,1.6-4.9,3.6-7.7,4.7
	c-3.7,1.5-7.6,2.4-11.4,3.7c-1,0.3-2,0.6-2.7,1.2c-11.2,10.4-23.1,8.7-31.1-4.5c-2.7,3-5.1,6.4-8,9.1c-8.3,7.8-19.4,5.8-25-4.2
	c-0.2-0.3-0.3-0.5-0.6-1.1c-1.3,1.8-2.4,3.5-3.6,5.1c-1.8,2.3-3.6,4.5-5.6,6.6c-6.6,6.5-18.3,5.6-24-1.9c-2.6-3.3-3.1-7.3-1.9-11
	c2.8-8.3,6-16.4,9.1-24.6c0.6-1.7,1.5-3.4,2-5.2c0.2-0.8-0.3-1.8-0.4-2.6c-0.9,0.2-2.2,0.1-2.8,0.6c-2.5,2.7-5.2,5.3-7.3,8.3
	c-8.7,13.2-16.5,26.8-21.5,41.8c-0.7,2.1-1.8,2.9-3.9,2.5c-5-0.7-9.6-2.2-12.3-7.1c-1.8,1.9-3.5,3.9-5.5,5.7
	c-8.5,7.8-20.3,5.3-25.3-5.2c-0.2-0.5-0.5-1-0.8-1.6c-5.9,6-13.1,8.8-21,10c-1.1,0.2-2.3,1.1-3.1,1.9c-6,6-12.9,7.9-20.9,4.4
	c-1.5-0.6-2.9-1.3-4.8-2.2c-1.2,5.5-2.6,10.6-3.4,15.9c-0.9,5.6-1.4,11.3-2.1,17c-0.3,3-1.2,3.8-4.1,3.7c-5.5-0.2-9.4-4-8.7-9.5
	c1.4-10.7,2.8-21.3,5.1-31.8c3.4-16.1,7.6-32,11.4-48c0.2-0.8,0.3-1.6,0.4-2.4c0.3-2.6,1.1-3.3,3.6-2.7c2.1,0.5,4.2,1.1,6.2,1.8
	c3.3,1.2,3.6,1.9,2.8,5.2c-0.7,3.1-1.5,6.1-2.2,9.1C428,286.8,428,287.7,427.8,288.6c0.1-0.1,0-0.1,0-0.2
	C427.8,288.5,427.8,288.5,427.8,288.6z M619.8,292.8c0.4,1.6,0.7,3.7,1.5,5.5c0.9,1.8,2.8,2.1,4.6,1.4c1.5-0.6,2.7-1.2,2.4-3.4
	c-0.4-2.8,2.2-5.7,4.9-6.2c0.6-0.1,1.4-0.5,1.6-1c3.6-7.6,6.4-15.6,7-24.1c0.2-2.4,0.4-5.2-2.2-6.4c-2.8-1.2-5,0.6-6.7,2.6
	C625.2,270.2,621.3,280.7,619.8,292.8z M437.9,312c4.4-9.2,7.3-18.4,7.6-28.4c0.1-1.9,0.8-4.5-1.7-5.2c-2.3-0.7-3.3,1.7-4.4,3.1
	c-5.4,7.2-9.7,15.1-13.2,23.4c-1.7,4.1-3.2,8.4-4.6,12.6c-0.3,0.9-0.1,2.4,0.5,2.9c2.4,2.2,6.6,2.2,9.4,0.2
	c-1.5-2.5-0.7-4.7,0.8-6.8C433.7,312,435.4,311,437.9,312z M684,338.1c6.8,0.7,13.5,1.4,20.3,2.5c3.2,0.5,6.1,2.1,8.2,4.7
	c2.4,2.8,2.7,6.2,0.3,9c-1.6,1.9-3.5,3.6-5.6,4.8c-4,2.1-8.2,3.7-12.3,5.4c-1.4,0.6-2.8,0.9-2.3,2.9c0.6,2,2.1,2.2,3.6,1.6
	c5.5-2.2,11.1-4.1,16.4-6.8c2.6-1.3,4.9-3.7,6.7-6.1c4.2-5.3,3.6-12.1-1.3-16.8c-1.7-1.6-3.8-3-5.9-4.1c-6.3-3.4-13.2-4.9-20.2-5.8
	c-18-2.2-35.9-1.5-53.8,0.7c-19.3,2.4-38.5,5.2-57.6,8.4c-45.8,7.8-90.9,18.5-135.4,31.7c-10.7,3.2-21.1,7.1-31.6,10.8
	c-3.3,1.2-3.6,2.3-1.3,4.9c3.1,3.4,6.6,6.5,10.2,9.5c2.1,1.8,4.5,1.8,7.2,0.8c20.7-7.4,41.3-15,62.2-21.8
	c45.2-14.6,91.2-25.9,138.3-32.2c15.8-2.1,31.7-3.9,47.7-4.1C679.8,338,682,337.8,684,338.1z M504.9,461.5c-0.1-0.7-0.4-1.4-0.4-2.1
	c0.1-6,0.2-12,0.2-18c0.1-7,0.3-14,0.1-20.9c-0.1-4-1.4-7.8-4.9-10.3c-8.5-6.2-18.3-7.2-28.4-6.5c-1.5,0.1-1.9,1.1-1.7,2.5
	c0.2,1.7,0.4,3.5,0,5.1c-5.6,20-11.4,40-19.1,59.3c-1.2,3-2,6.1-2.8,9.2c-0.6,2.2,0.2,4.3,2.2,5.4c3.2,1.6,6.5,3.1,9.8,4.2
	c2.2,0.8,4.1-0.2,5.2-2.3c1.1-2.1,2.4-4.2,3.1-6.5c3.5-10.4,6.8-20.9,10.1-31.4c1.8-5.6,3.3-11.3,5.1-17.7c0.1,1,0.2,1.3,0.2,1.6
	c0.8,13.8,1.6,27.6,2.3,41.3c0.2,3.4,1.6,5.5,4.6,6.9c4.6,2.1,9.4,2.2,14.4,2.3c4.7,0.1,7.7-1.9,9.2-6.1c1.7-4.7,3.2-9.4,5-14.1
	c6.7-18.1,13.5-36.2,20.2-54.3c2.7-7.3,0.9-10.8-6.8-12.4c-1.1-0.2-2.2-0.3-3.3-0.4c-2.8-0.3-4.9,1-6,3.5c-1.3,2.9-2.6,5.9-3.4,9
	c-2.1,8.1-3.7,16.3-5.9,24.3c-2.6,9.5-5.5,18.9-8.3,28.3C505.4,461.5,505.1,461.5,504.9,461.5z M381.1,238c1-0.8,2-1.6,3-2.4
	c8-5.9,18.6-1.4,23.1,6.3c2.2,3.8,2.7,8,2.8,12.3c0.3,12.4-2.1,24.4-5.8,36.2c-4.9,15.5-11.6,30.1-22.1,42.7
	c-4.9,5.9-10.6,10.9-17.3,14.7c-21,11.8-46.1-4.4-46.5-26.7c-0.3-13.9,2.7-26.9,8.3-39.5c6.3-14.3,15-26.9,26.5-37.5
	c1.5-1.4,3.1-2.6,4.7-3.8C364.9,234.7,372.7,233.5,381.1,238z M367.7,252c-0.7,0.4-1.5,0.6-2,1.2c-15.5,18.8-26.1,39.8-29.4,64.1
	c-0.7,5.5-0.7,11.1,1.5,16.4c3.2,7.6,10.1,10.9,17.8,8.1c2.7-1,5.4-2.5,7.8-4.2c5.1-3.7,9.2-8.5,12.6-13.8
	c12.2-18.8,19.4-39.6,22.1-61.8c0.5-4,0.4-8.2,0.1-12.2c-0.6-6.6-6.3-9.2-11.6-5.3c-1.4,1-2.8,2.1-3.6,3.5c-2.4,4-5.2,8-6.8,12.4
	c-2.3,6.6-3.7,13.6-5.5,20.4c-0.3,1.2-0.2,2.7-2.2,2.3c-3.4-0.6-6.1-3.3-6.2-6.7C362.1,267.8,364.3,259.7,367.7,252
	c0-0.1,0-0.1,0-0.2C367.7,251.8,367.7,251.9,367.7,252z M602.5,422.9c-1.2,13.8-6,28.8-16.1,41.9c-8.1,10.6-18.9,14.4-31.9,12.4
	c-8.8-1.3-15.3-7.8-17.3-17.2c-1.9-8.9-0.8-17.6,1.4-26.2c3.1-12.2,8-23.6,15.8-33.5c1.2-1.5,2.6-2.9,4-4.2c3.7-3.4,8-4.4,12.9-3.1
	c2.2,0.6,4.8,0.8,7,0.3c7.5-1.6,12.8,1.8,17.3,7C600.7,406.1,602.7,413,602.5,422.9z M584.4,412.4c-0.3-1.7-0.5-4.8-1.5-7.6
	c-1.1-3.1-3.9-3.7-6.3-1.5c-1.8,1.6-3.4,3.4-4.7,5.4c-9.1,14-14.2,29.4-15.7,46c-0.3,3.5,0.4,7.2,1.4,10.6c1.1,3.5,3.6,4.1,6.3,1.8
	c2.4-2,4.7-4.5,6.3-7.2C578.9,445.6,583,430.1,584.4,412.4z M467.6,211c5.1-4.7,10.1-8.3,12.9-14.5c1.9-4.2,4.8-8.2,7.9-11.7
	c3.6-4.2,6.6-4.3,11.3-1.6c6.1,3.4,7.3,6.1,5,12.7c-1.1,3.4-2.9,6.5-4.5,10.1c4.6-1.4,7.4-4.5,9.4-8.5c2.7-5.5,5.2-11,7.8-16.5
	c0.6-1.4,1.6-1.7,2.9-1.2c0.8,0.3,1.6,0.7,2.4,1.2c2.5,1.5,2.8,2.4,1.6,5.1c-1.8,4-3.8,7.9-5.6,12c-0.9,2.1-1.6,4.4-2.1,6.6
	c-0.2,0.9,0.3,1.9,0.5,2.9c0.9-0.3,2-0.4,2.7-1c1.6-1.4,3.2-2.9,4.6-4.6c4.8-6.1,8.7-12.7,11.3-20c0.6-1.7,1.5-2,3.1-1.4
	c3.9,1.5,4.8,3.2,3.3,7.2c-1.9,4.7-4,9.3-6,13.9c-0.6,1.5-1.9,3.5-0.1,4.5c0.9,0.5,3.2-0.5,4.3-1.4c6.8-5.6,10.8-13.3,15-20.8
	c0.3-0.5,0.2-1.6-0.2-2.2c-1.6-2.5-1.4-4.9-0.2-7.3c0.9-1.8,1.8-3.6,2.9-5.3c1.5-2.3,2.7-2.4,5.5-1c2.6,1.3,3.1,2.5,2.1,5
	c-1.1,2.7-2.2,5.4-3.3,8c-0.7,1.7-0.5,2.9,1.2,3.8c1,0.5,1.9,1.3,2.7,2c2.4,2.2,2.9,4.5,1.7,7.6c-0.9,2.2-2,4.4-2.9,6.6
	c-0.4,1-0.7,2-0.8,3c-0.1,1.7,0.8,2.3,2.2,1.4c1.2-0.8,2.3-1.8,3.2-2.8c2.3-2.7,4.4-5.5,6.6-8.3c0.5-0.7,1.1-1.3,1.6-2.1
	c2.2,1.5,2.5,3.5,1.2,5.1c-3.1,3.8-6.3,7.5-9.8,10.9c-2.2,2.1-5.1,2.3-7.8,0.8c-3-1.7-5-4.3-4.3-7.7c0.7-3.6,2.2-7,3.5-10.4
	c1-2.6,0.9-3.1-1.4-4.9c-2.6,4.2-5.1,8.5-8,12.5c-2.3,3.2-4.9,6.4-7.8,9.1c-6,5.5-12.1,4.2-15.9-3.1c-1.2,1.3-2.2,2.7-3.4,3.9
	c-5.3,5.5-12,4.5-15.5-2.5c-3.7,2.9-7.8,4.9-12.7,5c-0.4,0-0.9,0.4-1.2,0.7c-7.2,4.9-12.2,3.7-16.2-4c-3.2,2.7-6.3,5.6-9.7,8
	c-3,2.1-5.1,4.5-6.6,7.9c-1.4,3.1-3.2,6.1-5.2,8.9c-4.6,6.3-12.3,6.7-17.9,1.1c-2.1-2.1-2.3-4.1,0.1-5.9c3.3-2.5,7-4.5,10.5-6.7
	c0.4-0.3,0.9-0.4,1.3-0.6c7.4-3.6,7.9-4.3,9.4-13.3c-2.2,2.3-4,4.3-6,6c-3.3,3-5.6,3.1-9.1,0.9c-3.3-2.1-4.6-4.7-3.2-8.6
	c1.7-4.8,3.8-9.5,5.9-14.2c1-2.3,2.1-4.5,3.2-6.7c0.3-0.6,1.4-1.4,1.7-1.2c1.9,0.9,3.8,1.9,5.5,3.1c0.3,0.2,0,1.8-0.4,2.6
	c-2,4.2-4.2,8.3-6.2,12.5c-0.9,1.9-1.6,4-2.1,6.1c-0.2,0.6,0.1,1.8,0.6,2.1c0.5,0.3,1.7,0.1,2.1-0.3c2.9-2.8,6.1-5.4,8.3-8.6
	c3.6-5.3,6.5-11,9.6-16.6c0.8-1.5,1.3-3,3.5-1.9c3.2,1.5,4,2.9,3.1,5.2c-2.9,7.1-5.7,14.3-8.5,21.4C468,209.5,467.9,210,467.6,211z
	 M453.5,224.5c-3.1,1.7-6.2,3.3-9.2,5.1c-0.6,0.3-0.8,1.2-1.2,1.8c0.7,0.3,1.4,0.9,2.1,0.9C448.4,232.6,453.2,228.1,453.5,224.5
	l0.2,0.1C453.7,224.6,453.5,224.5,453.5,224.5z M485.8,207.4c0.6,0.7,1.2,2,2.1,2.3c1.4,0.5,2.1-0.5,2.5-2.1c0.2-0.9,1.2-1.8,2-2.5
	c0.5-0.4,1.6-0.3,1.9-0.8c2.7-4.3,5.1-8.7,5.7-13.9c0.1-0.7-0.3-2.1-0.8-2.2c-0.9-0.2-2.2-0.1-2.9,0.4
	C490.6,193.3,487.5,199.6,485.8,207.4z M705,399.7c1.4-1.5,2.9-3,4.2-4.5c1.9-2.2,4.2-2.9,6.9-1.7c2.7,1.2,4.3,3.3,4.4,6.3
	c0.2,5-1.6,9.4-3.7,13.8c-0.2,0.4-0.4,0.9-0.9,1.7c0.9-0.3,1.5-0.4,2-0.6c3.4-1.8,5.9-4.3,7.5-7.9c2.7-6.1,6.3-11.6,11.7-15.6
	c4.5-3.4,8.7-2.6,11.5,1.9c1.1,0.1,2.2-0.1,3.1,0.2c3.7,1.1,3.9,2,2.3,5.4c-2,4.2-3.7,8.5-5.3,12.8c-0.3,0.8,0.4,2,0.6,3
	c1-0.4,2.2-0.5,2.9-1.2c5.9-6.3,10-13.9,13.8-21.7c0.3-0.6,0.2-1.8-0.3-2.4c-1.5-2.3-1.4-4.5-0.4-6.9c0.8-1.8,1.6-3.7,2.6-5.4
	c1.5-2.6,2.6-2.8,5.6-1.4c2.6,1.2,3,2.1,2,5c-0.8,2.4-1.7,4.8-2.6,7.2c-0.8,2-0.6,3.5,1.6,4.5c1,0.4,1.9,1.2,2.7,2
	c1.9,1.7,2.5,3.9,1.6,6.3c-0.8,2.3-1.8,4.6-2.7,7c-0.4,1-0.7,2-0.8,3c-0.1,0.6,0.2,1.5,0.5,1.7c0.5,0.2,1.5,0,1.9-0.4
	c3.8-3.7,7.4-7.6,9.1-12.8c1.5-4.4,3.2-8.7,4.9-13.2c-0.4-0.3-1-0.5-1.2-0.9c-0.5-0.8-0.8-1.8-1.2-2.6c0.8-0.1,1.6-0.3,2.4-0.2
	c1.2,0.2,2.1,0.2,2.6-1.2c1.4-3.4,3.2-6.7,4.5-10.1c0.7-1.6,1.7-1.2,2.7-0.9c2.8,1.1,4,4.1,2.8,7c-0.5,1.2-1.2,2.4-1.9,4
	c2.1-0.3,3.8-0.6,5.5-0.8c0.6-0.1,1.3,0.2,2,0.3c-0.2,0.7-0.2,1.4-0.5,2c-1.5,2.8-4,3.6-6.9,3.4c-2.1-0.2-3,0.7-3.6,2.6
	c-1.7,5-3.6,9.9-5.4,14.9c-0.3,1-0.5,2.1-0.3,3.1c0.3,1.1,0.8,2.7,1.7,3.1c0.9,0.4,2.8,0,3.5-0.7c3-3.3,5.8-6.8,8.6-10.3
	c0.6-0.8,1.2-1.7,1.8-2.6c2.2,1.3,2.5,3,1.5,4.8c-2.6,4.5-5.6,8.9-9.9,12c-3.8,2.7-9.8,1.5-13-2.4c-0.4-0.5-0.8-1-0.9-1.3
	c-2,1.9-4,3.8-6,5.5c-2.5,2.1-5.3,2.5-8.3,0.8c-2.9-1.7-4.5-4.4-3.8-7.7c0.7-3.3,1.9-6.6,3.1-9.8c0.8-2.1,0.4-3.5-1.5-4.4
	c-3.4,5.6-6.6,11.3-10.2,16.7c-1.8,2.7-4.2,5-6.6,7.3c-1.9,1.9-4.4,2-6.8,1.3c-2.7-0.8-4.8-2.3-4.4-6c-1.7,2-2.9,3.8-4.4,5.3
	c-4.8,5-9.8,4.3-13.3-1.6c-0.1-0.3-0.3-0.5-0.3-0.1c-3.7,1.3-7.5,2.6-11.2,3.9c-0.6,0.2-1.2,0.4-1.7,0.8c-3.9,3.7-8.2,4.5-13,1.7
	c-0.2-0.1-0.5-0.1-1.2-0.3c-1.4,5.2-2.8,10.5-4.1,15.7c-0.5,1.8-0.3,3.9-3.2,3.4c-2.5-0.4-4.2-2.2-3.6-4.7c2.1-8,4.2-16,6.7-23.8
	c2.1-6.8,4.5-13.5,7-20.2c0.2-0.6,1.3-1.1,2-1.3c0.5-0.2,1.2,0.3,1.8,0.5c3.1,1,3.3,1.3,2.3,4.5C705.6,397.6,705.3,398.7,705,399.7
	c-0.2,0.4-0.4,0.8-0.7,1.1c0,0,0.1,0,0.1,0.1c0,0,0-0.1-0.1-0.1C704.6,400.4,704.8,400,705,399.7z M713.9,396.4
	c-1,0.1-1.2,0-1.4,0.1c-0.3,0.2-0.7,0.4-0.9,0.7c-5.3,5.8-9.2,12.5-12.2,19.7c-0.8,1.9,0.7,2.3,2,2.5c1.2,0.2,2.5,0.5,2.8-1.6
	c0.2-1.3,1.3-3.3,2.2-3.5c2.1-0.3,2.7-1.7,3.4-3.2c1.2-2.8,2.4-5.6,3.3-8.5C713.6,400.7,713.6,398.6,713.9,396.4z M730.6,415.6
	c0.3,0.4,0.7,1.4,1,1.4c0.9,0,1.9-0.3,2.5-0.9c5.6-4.8,8.3-11.4,10.6-18.2c0.1-0.3,0.1-0.6,0.1-0.9c-0.1-1.5-1-2-2.3-1.5
	c-0.8,0.3-1.5,1-2.1,1.6c-4.1,4.5-7.2,9.6-9.2,15.3C731,413.4,730.9,414.3,730.6,415.6z M619.4,426.8c-3.3,10-6.7,19.9-7.8,30.4
	c-0.8,7.7,4.4,12.9,9.2,15.1c3.5,1.6,7.6-1,8.1-4.8c0.4-4,0.8-8,1.7-11.9c3.1-14,6.3-28,9.5-42c0.9-4,1.4-7.8-1.7-11.5
	c2.1-0.2,3.7-0.3,5.3-0.5c4.2-0.5,8.5-0.8,12.7-1.4c2-0.3,3.9-1.5,3.7-3.8c-0.4-3.2-1.1-6.4-2.1-9.5c-0.6-1.8-2.3-2.8-4.4-2.6
	c-11.7,1.2-23.5,2.5-35.2,3.6c-3.4,0.3-7,1.5-10.4-0.4c-0.7-0.4-1.6-0.4-2.4-0.5c-0.1,0.9-0.5,1.9-0.2,2.7c1.2,3.1,2.5,6.2,3.8,9.3
	c1.1,2.5,3,3.6,5.7,3.5c3.8-0.1,7.5,0,12,0C624.3,410.9,622,418.9,619.4,426.8z M411,443c3.4,2.2,4,4.6,2,8
	c-5.6,9.8-13.6,16.8-24.3,20.5c-8.9,3.1-17.7,2.9-25.9-2.5c-1.6,1.4-3.3,3-5,4.4c-3.8,3.1-8,4-12.6,1.9c-4.8-2.2-7.5-6-7.4-11.2
	c0.1-3.8,0.7-7.7,1.9-11.3c2.6-7.7,5.8-15.1,8.6-22.7c1-2.5,2.6-3.5,5.2-3c0.1,0,0.2,0,0.2,0c7.9,1.5,8.1,3.4,5.3,9.3
	c-3.5,7.5-6.6,15.2-9.5,22.9c-0.9,2.5-1.2,5.3-1,8c0.1,2.8,2.4,3.7,4.6,1.9c3-2.4,5.9-5,7.3-8.8c0.4-1,0.9-2,1.6-2.6
	c6.2-5.9,9.7-13.7,14.6-20.5c2.7-3.8,4.4-8.1,5.8-12.6c1-3.3,2.5-6.4,4.2-9.4c1.6-2.9,4.7-3.2,8.4-1.1c3.2,1.7,4.3,4.5,2.7,7.4
	c-1.8,3.2-3.6,6.5-5.9,9.3c-2.1,2.7-1.8,5.1-0.6,7.8c0.4,0.9,0.8,1.7,1.3,2.6c3.4,5.4,5.6,11.2,4.2,18.2
	C403,455,407.1,449.2,411,443z M383.9,438.5c-0.3,0-0.6,0-0.9,0c-4.3,6.9-8.6,13.7-12.8,20.6c-0.2,0.3-0.4,0.8-0.3,1.1
	c0.7,2.9,2.7,4.7,5.3,5.8c2.2,0.9,4.3,0.5,5.6-1.4c1.3-1.9,2.8-4.2,2.9-6.4C384.1,451.6,383.9,445,383.9,438.5z M366,630.4
	c3.2,1.2,5,0.3,5.6-3c2.1-11.2,6-21.8,10.6-32.1c8.4-19,18.6-37.1,28.7-55.2c3.6-6.4,3.1-8.1-3-12.1c-1-0.6-2.1-1.3-3.2-1.7
	c-2.7-1-4.6-0.1-5.9,2.4c-2.9,5.6-5.8,11.1-8.7,16.6c-9.4,17.9-18.8,35.7-28.1,53.7c-3,5.8-4.9,12-5.1,18.7
	C356.9,623.2,360.6,628.4,366,630.4z M771.5,465.2c0.5-0.5,1.1-1,1.6-1.5c3.4-3.9,6.6-7.9,10.1-11.7c1.9-2.1,4.2-3.8,7.4-3.2
	c3.6,0.7,5.9,3.8,4.7,7.2c-1.3,3.8-3.3,7.3-4.9,10.9c-0.8,1.8-1.8,3.6-2.4,5.5c-0.2,0.7,0,1.8,0.4,2.3c0.2,0.3,1.6,0.1,2.1-0.3
	c3.7-3.5,7.2-7.2,8.9-12.1c1.9-5.3,4.6-10.1,8.8-13.9c3.6-3.3,8.8-3.2,12,0.5c0.8,1,1.3,2.9,0.9,4.1c-1.9,6.7-5.5,12-12.9,13.5
	c-1.5,0.3-1.8,1-1.6,2.3c0.4,3,3.2,4.8,6.1,3.3c2.2-1.1,4.4-2.7,6.1-4.5c2.7-2.9,5-6.2,7.5-9.5c1.9,1.1,2.4,2.9,1.3,4.7
	c-3.3,5.7-7.4,10.6-13.5,13.2c-5.8,2.5-10.6,0.6-13.9-4.3c-2.1,1.7-4.4,3.6-6.7,5.4c-2.2,1.8-4.6,2.4-7.4,1.7
	c-4.5-1.1-6.9-4.7-5.2-9.1c1.6-4.2,3.8-8.1,5.7-12.2c0.5-1.1,0.7-2.3,1.1-3.5c-0.3-0.1-0.5-0.2-0.8-0.4c-0.9,0.8-1.8,1.5-2.6,2.4
	c-6.2,7.1-11.9,14.5-15.8,23.2c-1.6,3.5-3.5,3.8-6.3,1.1c-0.4-0.4-0.8-1-1.2-1.6c-1.2,1-2.5,2.2-3.8,3.1c-5.4,3.6-14.2-0.4-14.5-6.8
	c-0.1-2.3,0.5-4.6,1.2-6.8c1.4-4.4,3.1-8.7,4.8-13.3c-0.6-0.5-1.4-1.1-2.1-1.9c-0.3-0.4-0.5-1.3-0.3-1.7c0.2-0.3,1.2-0.6,1.6-0.4
	c2.2,0.9,3.1-0.2,3.9-2.1c1.3-3.1,2.7-6.2,4.2-9.2c0.3-0.5,1.4-1,2-0.8c2.9,0.6,4.5,3.8,3.5,6.6c-0.6,1.5-1.3,2.9-2.1,4.6
	c1.5-0.2,2.8-0.4,4-0.6c1.1-0.1,2.3-0.2,3.5-0.4c-0.5,3.5-2.6,5.5-5.5,5.7c-1,0.1-2-0.1-2.9,0.1c-0.8,0.2-1.8,0.7-2.1,1.4
	c-2,5.1-4,10.3-5.8,15.5c-0.5,1.3-0.5,2.9-0.4,4.3c0.3,2.7,2.3,3.7,4.6,2.2c1-0.6,1.9-1.5,2.7-2.3c3.4-3.7,6-7.7,7.8-12.6
	c3.1-8.5,6.8-16.8,10.2-25.2c1.4-3.4,2.1-3.6,5.3-1.5c2.1,1.4,2,3.1,1.1,5c-2.7,6.1-5.5,12.1-8.1,18.2
	C772.7,461.6,772.2,463.4,771.5,465.2c0,0.2,0,0.3,0,0.4C771.5,465.5,771.5,465.3,771.5,465.2z M807.1,463c3.8-1.3,8.9-7.8,8.7-11.6
	C811.9,454.9,809.4,458.7,807.1,463z M703.9,483.3c-3.1,0.9-6.3,1.9-9.5,2.9c-0.8,0.3-1.5,0.9-2.2,1.4c-4.1,3.1-7.8,3.6-11.3,1.3
	c-3.7-2.3-5.1-6.3-3.9-11.2c1.6-6.5,4.8-12.2,9.4-17.1c3.3-3.5,6-3.9,10.4-1.8c1.6,0.8,3.3,1.5,4.5,2.7c1,1,1.7,2.8,1.8,4.2
	c0.3,4.5-1.6,8.4-3.5,12.4c-0.4,0.8-0.8,1.7-0.9,2.9c1.3-0.8,2.7-1.3,3.7-2.3c2.5-2.4,4.5-5,5.7-8.5c3.1-9.1,6.4-18.1,9.7-27.2
	c1.3-3.4,1.7-3.6,4.4-2.5c3.3,1.4,3.7,2.6,2.6,5.7c-3.5,9.5-6.9,19-10.3,28.5c-0.3,0.9-0.7,1.8-0.7,2.8c-0.1,0.9,0.2,1.8,0.3,2.7
	c0.9-0.2,2.2,0,2.7-0.5c2.7-2.7,5.4-5.5,7.9-8.3c0.9-1,1.5-2.2,2.3-3.3c2.2,1.1,2.9,2.6,1.6,4.7c-2.9,4.9-5.9,9.8-11.8,11.7
	c1.8,5.6,1.5,11.1-0.9,16.4c-1.5,3.3-3.6,4.3-6.9,4c-3.2-0.3-5.4-2.3-6.2-5.5c-1.2-4.6-0.5-9.1,0.6-13.6
	C703.5,484.8,703.8,483.8,703.9,483.3z M684.3,482.8c0.5,0.6,1.1,2.1,2,2.4c1.2,0.4,2.1-0.6,2.4-2.2c0.2-1.1,1.6-2,2.6-2.9
	c0.4-0.4,1.2-0.6,1.4-1.1c1.6-4.1,3.3-8.1,4.7-12.3c0.3-0.9-0.4-2.2-0.6-3.3c-1.1,0.3-2.5,0.3-3.2,1
	C688.5,469.3,685.7,475.3,684.3,482.8z M711.4,485.6c-1.6,4.9-2.9,9.5-1.2,14.8C713.6,497.6,714,489.9,711.4,485.6z M550.3,634
	c1-1,2.2-1.9,2.8-3.1c0.8-1.6-0.7-2.5-1.9-2.7c-4.8-1-9.5-2.3-14.3-2.7c-11.1-0.8-22.1,0.9-33,3.3c-18.8,4.1-37.1,9.7-54.4,18.1
	c-6.9,3.3-7.3,5.3-2.6,11.5c0.1,0.2,0.3,0.4,0.5,0.6c3.5,4.3,4.8,4.5,9.5,1.6c0.3-0.2,0.7-0.4,1-0.6c16.1-9.8,32.7-18.5,50.9-23.7
	c10.3-2.9,20.8-4.7,31.6-4.2c3.2,0.1,6.3,0.8,9.5,1.3C550,633.5,550.2,633.8,550.3,634z M115.7,625.4c1.6-11.2,3.6-22.2,8.9-32.3
	c6.1-11.6,12.6-22.9,18.6-34.5c5.9-11.4,10.8-23.2,11.2-36.3c0.1-4.6-0.8-9.2-1.4-13.8c-0.1-0.5-0.8-1-1.2-1.5
	c-0.3,0.6-0.9,1.1-1,1.7c-0.2,1.7-0.3,3.4-0.3,5c-0.5,11-1.5,21.9-6.4,31.9c-5.5,11.1-11.5,22.1-17.6,32.9
	c-7.5,13.2-13.2,26.9-15.2,42c-0.5,3.8-0.2,7.6,1.4,11.7C115.4,630.2,115.4,627.6,115.7,625.4z M81.6,523.7
	c13.6-3.9,27.3-7.4,40.1-13.5c6-2.8,12-5.4,16.9-10.1c3.4-3.3,5.5-7.2,3.8-12.1c-1.8-5.3-5.8-8.3-11.2-9.5c-0.5-0.1-1.2,0.2-1.8,0.3
	c0.2,0.6,0.2,1.5,0.6,1.9c1.9,1.7,3.9,3.3,5.8,5c4.3,3.9,4.5,7.3-0.1,10.8c-4.4,3.4-9.2,6.5-14.3,8.8c-16.7,7.5-34.3,12-52.2,15.6
	c-7.1,1.4-14.1,3.2-21.1,5c-0.7,0.2-1.2,1.2-1.8,1.8c0.7,0.5,1.4,1.2,2.1,1.3c1.3,0.2,2.7,0.1,4.1,0.1
	C62.5,528.9,72.1,526.4,81.6,523.7z M74,573.5c7.4,5.4,14.6,11,22,16.4c2.8,2.1,6,3.7,9.1,5.4c0.6,0.3,1.7-0.2,2.5-0.4
	c-0.3-0.7-0.4-1.7-0.9-2.1c-9.2-6.7-18.4-13.4-27.7-20c-8.4-5.9-17.3-11.1-27.1-14.3c-8.1-2.6-16.3-3.3-24.7-1.9
	c-0.7,0.1-1.3,1-2,1.6c0.7,0.4,1.4,1.1,2.2,1.2c1.5,0.2,3,0.1,4.6,0.1C47.4,559.4,61.4,564.3,74,573.5z M599.8,522.4
	c3.5-2.6,5.5-6.2,6.3-10.4c0.5-2.5-0.1-4.9-2.4-6.3c-2.6-1.6-5.4-2.5-8.2-0.7c-3.9,2.4-6.5,6-7.3,10.6c-0.8,4.9,2.3,8.4,7.3,8.8
	C596.9,523.6,598.6,523.3,599.8,522.4z M601.4,224.9c-2.9-1.2-6-1.8-8.2,0.8c-1.9,2.2-3.4,4.8-4.5,7.5c-1.2,3.1,0.4,6.7,3.1,8.4
	c2.8,1.7,6.7,1.5,9-0.7c2.8-2.6,4.3-6,4.6-9.8C605.4,228.2,604.1,226,601.4,224.9z M498.4,238c-2.7-1.2-5.5-1.7-8,0.4
	c-2.7,2.2-4.4,5.1-5.1,8.5c-0.6,3,0.9,6.3,3.5,7.9c2.6,1.5,6.3,1.5,8.4-0.3c3.1-2.6,4.7-6,4.9-10.1
	C502.4,241.3,501.1,239.1,498.4,238z M85.1,469.6c0.8-0.1,1.6-0.5,2.4-0.8c-0.6-0.6-1.1-1.7-1.8-1.9c-3-0.6-6-1.5-9-1.4
	c-10.3,0.5-19.1,4.7-26.6,11.5c-2.5,2.3-4.7,4.9-5.2,8.4c-0.2,1.3,0.3,3.4,1.1,3.9c1.7,1.1,2.5-1,3.4-2.2c0.7-1,1.1-2.2,1.8-3.1
	c1.2-1.8,2.4-3.6,4-5.1c7.4-6.9,16.5-9.3,26.6-9.5C82.7,469.5,84,469.7,85.1,469.6z M366.4,417.3c2.7-2.1,4.4-4.9,5-8.2
	c0.4-2.1-0.1-4-2.1-5.2c-2.2-1.3-4.6-1.9-6.8-0.3c-2.7,2-4.7,4.6-5.4,8c-0.8,3.7,1.9,6.9,5.8,7.2C364.1,418.3,365.4,418,366.4,417.3
	z M194.4,367c-2.2,0-4.5,0.1-6.7-0.1c-2.5-0.2-5-0.8-7.6-1.2c-0.7-0.1-1.4,0-2.2,0c0.4,0.7,0.6,1.6,1.2,2c5.8,4.5,12,8.2,18.6,11.3
	c4.7,2.2,9.5,3.5,14.7,3c0.8-0.1,1.7,0,2.6,0c-0.4,2.4-1.3,3-3.7,2.8c-1.2-0.1-2.7-0.7-3.4-0.1c-3.5,2.4-6.6,1.3-9.6-0.6
	c-2.2-1.4-4.1-3.3-6.3-4.9c-2.4-1.8-5-3.3-7.5-5c-0.2,0.2-0.4,0.3-0.6,0.5c0.1,0.5,0.1,1.1,0.4,1.6c1.8,3.1,3.8,6.1,5.5,9.3
	c5.9,10.7,24.4,10.7,28.8-1.6c0.2-0.7,1.1-1.4,1.8-1.6c1.3-0.4,1.8-1,1.8-2.4c-0.1-4.1-4.8-8.6-8.8-8.2c-1.7,0.2-3.4,0.9-5.3,1.4
	C205,368,199.9,367,194.4,367z M174.5,293.8c-0.1,0.1-0.1,0.1-0.2,0.2c-0.1-0.1-0.1-0.2-0.2-0.3c-1.5-0.2-3.9-1.6-3.2,1.9
	c0,0.1-0.3,0.3-0.4,0.5c-0.1,0.1-1.4,4.9-1.4,5c1,1.1,1.9,2.4,3.2,3.2c0.6,0.3,1.9-0.3,2.7-0.7c2.4-1.2,4.6-3,7.2-3.8
	c5.9-2,12.7,0.3,15,5.3c1.8,3.7,2.6,7.8,3.9,11.7c0.1,0.3,0.3,0.8,0.6,0.9c0.4,0.1,1.2-0.1,1.2-0.3c0.2-0.8,0.6-2,0.3-2.4
	c-1.6-1.6-0.8-3.6-1.1-5.4c-0.3-2-0.6-4-1.5-5.7c-2.2-4.5-6.1-7.1-10.9-8.4c-1.4-0.4-2.6-1-3.9-1.6c7.6-0.5,13.8,2.1,18.5,8.2
	c-0.2-4.5-3-6.7-6.3-8.6c-6.3-3.6-16.8-2.7-19.8-0.1c-0.6-0.5-1.2-1.1-1.8-1.5c-1.6-1.2-2.2-0.7-2.3,1.7
	C174.2,293.7,174.3,293.8,174.5,293.8z M208.6,284.3c-6.4-5.7-13.8-9.6-22.1-11.7c-4.3-1.1-8.5-0.8-12.6,1.1
	c-1.2,0.5-2.3,1.1-3.4,1.8c-1,0.7-3,0.5-2.5,2.5c0.1,0.3,2.2,0.2,3.3-0.2c4.1-1.4,8.2-2.7,12.7-1.2c5,1.7,9.7,3.8,13.7,7.3
	c3.7,3.2,7.2,6.6,10.8,9.8c0.8,0.7,2.1,0.9,3.2,1c0.3,0,0.7-1.3,1-2C212.4,288.8,211.6,286.9,208.6,284.3z M179.8,309.2
	c0-5.2,1.5-7.9,4.8-8.7c2.5-0.6,6.6,0,7.8,2.3c2,3.9,1.4,7.8-2.3,11.4c1.1,0.4,2.2,0.7,3.2,1.1c0,0.3,0,0.6,0,0.9
	c-1.3,0.2-2.7,0.8-3.9,0.5c-3.3-0.9-6.6-1.9-9.7-3.3c-2.1-0.9-3.9-2.4-5.8-3.7c-0.3-0.2-0.5-1.3-0.4-1.4c1-0.5,2.2-1.4,3.2-1.3
	C177.6,307.2,178.5,308.4,179.8,309.2z M187,302.8c-2.5,0-4,1.8-3.9,4.4c0,2,1.7,4.2,3.2,4.2c2.2,0,4.6-2.5,4.5-4.8
	C190.8,304.6,189,302.8,187,302.8z M231,325.7c0-4,3-6.8,7.1-6.8c4,0,6.3,2.6,6.4,7.1c0.1,3.5-2.5,6.7-5.5,6.8
	C234.9,332.8,231,329.4,231,325.7z M234.3,325.3c-0.1,2.1,1.4,4.3,3,4.4c2.1,0.1,4.3-2,4.3-4.3c0.1-2.1-1.4-4-3.2-4.1
	C236,321.2,234.4,322.7,234.3,325.3z M203.9,335.4c-4.2,1.1-7.3,8.1-5.3,11.9c0.4,0.8,1.7,1.2,2.5,1.7c0.3-0.8,1-1.7,0.9-2.4
	c-0.4-3.2,0.5-6,2.6-8.4c0.6-0.7,0.8-1.6,1.4-2.8C205.1,335.3,204.4,335.2,203.9,335.4z M208,347.2c-2.3,1-3.2,2.5-2.3,4
	c0.8,1.3,3,1.6,4.7,0.3c1.1-0.9,1.9-0.5,3-0.2c0.6,0.2,1.7-0.1,2-0.6c0.3-0.5,0.2-1.8-0.2-2.1c-1.3-1-2.8-1.6-3.9-2.3
	C209.8,346.7,208.8,346.8,208,347.2z M171.9,365.1c-0.1,0.1,0.9,1,1.4,1.5c1.1-1.1,2.3-2.3,3.3-3.5c0.1-0.1-0.7-1-1.5-2.1
	C173.7,362.6,172.7,363.8,171.9,365.1z M189.1,307.3c-0.1-1-1.5-1.8-2.3-2.6c-0.9,0.9-2.2,1.6-2.5,2.6c-0.2,0.7,1.2,1.7,2.4,3.4
	C187.9,309.1,189.3,308.1,189.1,307.3z M240.2,325.8c-0.4-1.1-1.6-1.8-2.5-2.7c-0.8,0.9-2.1,1.7-2.2,2.7c-0.1,0.8,1.3,1.7,2.5,3.1
	C239.1,327.4,240.4,326.3,240.2,325.8z"/>
</svg>
